<svg xmlns="http://www.w3.org/2000/svg" xmlns:xlink="http://www.w3.org/1999/xlink" version="1.1" id="Registration_x5F_Marks" x="0px" y="0px" viewBox="0 0 122 40.5" style="enable-background:new 0 0 122 40.5;" xml:space="preserve">
<style type="text/css">
	.st0{stroke:#000000;stroke-width:0.327;}
</style>
<a class="navbar-brand d-inline-block" href="https://web.ambest.com" target="_blank">
<g>
	<g>
		<path class="st0" d="M15.65,21.59c0,5.4,7.31,9.69,18.06,12.36v2.82C14.44,33.91,0.56,28.19,0.56,21.59    c0-8.37,22.32-15.33,49.7-16.81v1.86C31.13,8.17,15.65,13.72,15.65,21.59z"/>
		<g>
			<path class="st0" d="M121.56,21.59c0,6.6-13.89,12.34-33.22,15.19v-2.84c10.8-2.65,18.13-6.94,18.13-12.36     c0-7.93-15.8-13.54-35.2-15.01V4.74C98.93,6.16,121.56,13.16,121.56,21.59z"/>
		</g>
	</g>
	<g>
		<g>
			<path d="M37.2,36.56c0,0.77,0.71,1.07,1.59,1.07c0.97,0,1.33-0.38,1.33-0.76c0-0.39-0.26-0.54-0.52-0.62     c-0.44-0.13-1.01-0.22-1.87-0.41c-1.07-0.23-1.39-0.75-1.39-1.27c0-1.01,1.16-1.48,2.29-1.48c1.31,0,2.41,0.56,2.41,1.6h-1.1     c-0.05-0.65-0.6-0.89-1.35-0.89c-0.51,0-1.15,0.15-1.15,0.65c0,0.35,0.3,0.55,0.75,0.65c0.1,0.02,1.48,0.31,1.81,0.39     c0.83,0.2,1.22,0.76,1.22,1.28c0,1.13-1.25,1.58-2.49,1.58c-1.43,0-2.59-0.55-2.62-1.79H37.2z"/>
			<path d="M42.52,33.22h1.1v5.02h-1.1V33.22z"/>
			<path d="M45.25,33.22h1.16l2.86,3.7h0.02v-3.7h1.05v5.02h-1.16l-2.85-3.69H46.3v3.69h-1.05V33.22z"/>
			<path d="M56.22,34.81c-0.18-0.58-0.65-1-1.56-1c-1.34,0-1.9,0.95-1.9,1.91c0,0.96,0.56,1.91,1.9,1.91c0.98,0,1.51-0.58,1.6-1.31     h1.07c-0.09,1.2-1.15,2.03-2.67,2.03c-1.88,0-3-1.2-3-2.63c0-1.43,1.12-2.63,3-2.63c1.41,0.01,2.53,0.63,2.66,1.72H56.22z"/>
			<path d="M58.68,33.22h4.52v0.76h-3.42v1.32h3.16v0.72h-3.16v1.47h3.48v0.76h-4.58V33.22z"/>
			<path d="M67.14,34.13c0.84,0.01,1.64-0.23,1.79-0.82h0.82v4.92h-1.1v-3.47h-1.51V34.13z"/>
			<path d="M70.89,36.79c0-0.62,0.44-1.06,1.12-1.2v-0.01c-0.55-0.17-0.87-0.53-0.87-1.01c0-0.84,0.69-1.34,1.91-1.34     c1.22,0,1.92,0.51,1.92,1.34c0,0.48-0.32,0.84-0.87,1.01v0.01c0.68,0.14,1.12,0.58,1.12,1.2c0,0.96-0.92,1.55-2.17,1.55     C71.81,38.34,70.89,37.75,70.89,36.79z M74.22,36.79c0-0.54-0.5-0.86-1.17-0.86c-0.67,0-1.17,0.32-1.17,0.86     c0,0.58,0.5,0.91,1.17,0.91C73.72,37.7,74.22,37.37,74.22,36.79z M72.09,34.6c0,0.46,0.41,0.72,0.97,0.72     c0.55,0,0.97-0.26,0.97-0.72c0-0.49-0.43-0.75-0.97-0.75S72.09,34.12,72.09,34.6z"/>
			<path d="M77.26,36.99c0.04,0.4,0.38,0.67,0.9,0.67c1.09,0,1.21-1.04,1.27-1.69l-0.02-0.01c-0.26,0.38-0.76,0.59-1.33,0.59     c-1.16,0-1.94-0.65-1.94-1.66c0-0.96,0.77-1.68,2.12-1.68c1.74,0,2.17,1.14,2.17,2.57c0,1.17-0.58,2.55-2.32,2.55     c-0.98,0-1.8-0.54-1.85-1.34H77.26z M77.15,34.89c0,0.53,0.34,1.03,1.07,1.03c0.75,0,1.12-0.49,1.12-1.03     c0-0.53-0.37-1.01-1.12-1.01C77.49,33.89,77.15,34.35,77.15,34.89z"/>
			<path d="M82.48,36.99c0.04,0.4,0.38,0.67,0.9,0.67c1.09,0,1.21-1.04,1.27-1.69l-0.02-0.01c-0.26,0.38-0.76,0.59-1.33,0.59     c-1.16,0-1.94-0.65-1.94-1.66c0-0.96,0.77-1.68,2.12-1.68c1.74,0,2.17,1.14,2.17,2.57c0,1.17-0.58,2.55-2.32,2.55     c-0.98,0-1.8-0.54-1.85-1.34H82.48z M82.37,34.89c0,0.53,0.34,1.03,1.07,1.03c0.75,0,1.12-0.49,1.12-1.03     c0-0.53-0.37-1.01-1.12-1.01C82.71,33.89,82.37,34.35,82.37,34.89z"/>
		</g>
	</g>
	<g>
		<path d="M37,29.86h-8.15v-16.6h7.87c2.03,0,3.61,0.45,4.72,1.36c1.14,0.91,1.72,2.13,1.72,3.65c0,0.59-0.16,1.21-0.48,1.84    c-0.21,0.42-0.53,0.81-0.96,1.17c0.56,0.33,1.02,0.72,1.36,1.16c0.52,0.7,0.79,1.51,0.79,2.41c0,1.62-0.61,2.88-1.83,3.76    C40.85,29.44,39.16,29.86,37,29.86 M32.82,26.45h4.32c0.93,0,1.64-0.14,2.09-0.42c0.35-0.24,0.52-0.62,0.52-1.21    c0-0.59-0.18-1-0.56-1.29c-0.44-0.32-1.13-0.48-2.05-0.48h-4.32V26.45z M32.82,19.79h3.9c0.88,0,1.51-0.16,1.83-0.46    c0.32-0.32,0.47-0.67,0.47-1.08c0-0.44-0.15-0.79-0.48-1.12c-0.31-0.29-0.94-0.45-1.82-0.45h-3.9V19.79z"/>
		<polygon points="59.88,29.85 46.17,29.85 46.17,13.25 59.88,13.25 59.88,16.66 50.14,16.66 50.14,19.69 58.88,19.69 58.88,23.1     50.14,23.1 50.14,26.44 59.88,26.44   "/>
		<path d="M69.17,30.19c-1.07,0-2.18-0.17-3.27-0.5c-1.15-0.34-2.11-0.91-2.85-1.69c-0.4-0.42-0.73-0.93-0.98-1.51    c-0.23-0.58-0.35-1.23-0.35-1.96v-0.56h4.11v0.56c0,0.71,0.28,1.22,0.89,1.6c0.66,0.43,1.48,0.64,2.45,0.64    c0.98,0,1.82-0.17,2.5-0.5c0.56-0.28,0.81-0.69,0.81-1.32c0-0.28-0.08-0.48-0.24-0.63c-0.22-0.21-0.54-0.38-0.95-0.53    c-0.83-0.31-1.85-0.54-3.06-0.7c-1.31-0.17-2.5-0.52-3.53-1.03c-0.73-0.35-1.34-0.86-1.8-1.49c-0.49-0.63-0.75-1.47-0.75-2.49    c0-0.66,0.13-1.27,0.39-1.81c0.23-0.52,0.55-0.98,0.96-1.37c0.7-0.72,1.61-1.26,2.69-1.58c1.04-0.31,2.04-0.47,2.99-0.47    c0.51,0,1.06,0.05,1.61,0.15c0.55,0.1,1.09,0.24,1.62,0.41c1.01,0.39,1.88,0.97,2.61,1.74c0.77,0.81,1.16,1.89,1.16,3.21v0.56    h-4.11v-0.56c0-0.58-0.24-1.05-0.77-1.47c-0.55-0.42-1.26-0.63-2.12-0.63c-0.89,0-1.62,0.19-2.18,0.57    c-0.48,0.34-0.71,0.74-0.71,1.25c0,0.26,0.08,0.45,0.24,0.6c0.22,0.2,0.52,0.37,0.91,0.49c0.85,0.29,1.89,0.52,3.1,0.68    c1.3,0.16,2.49,0.49,3.53,1.01c0.73,0.35,1.33,0.84,1.79,1.45c0.48,0.64,0.73,1.48,0.73,2.5c0,0.71-0.12,1.34-0.36,1.9    c-0.23,0.55-0.57,1.04-1,1.45c-0.73,0.73-1.67,1.27-2.81,1.59C71.33,30.04,70.24,30.19,69.17,30.19"/>
		<polygon points="87.29,29.86 83.29,29.86 83.29,16.67 77.13,16.67 77.13,13.26 93.45,13.26 93.45,16.67 87.29,16.67   "/>
	</g>
	<path d="M59.92,9.12c-1.14-3.17-2-5.57-2.58-7.18h-0.88c-1.26,3.5-2.12,5.91-2.57,7.18h0.25v0h1.06l0.56-1.61h2.27l0.56,1.61h1.06   v0H59.92z M56.05,6.65l0.85-2.46l0.85,2.46H56.05z"/>
	<path d="M66.79,1.94v7.18h-1.23V6.37l0.02-1.39c-0.36,1.14-0.81,2.52-1.32,4.13h-1.44c-0.28-0.84-0.75-2.25-1.39-4.2l0.03,1.45   v2.75h-1.22V1.94h1.42c0.33,1.05,0.94,3.01,1.83,5.81l0.05,0.18l0.05-0.18c0.41-1.34,1.01-3.28,1.78-5.81H66.79z"/>
</g>
	</a>
</svg>