<?xml version="1.0" encoding="UTF-8"?>
<svg id="Layer_1" data-name="Layer 1" xmlns="http://www.w3.org/2000/svg" viewBox="0 0 520.61 155">
  <defs>
    <style>
      .cls-1 {
        stroke: #fff;
        stroke-miterlimit: 10;
        stroke-width: 3px;
      }

      .cls-1, .cls-2 {
        fill: none;
      }

      .cls-3 {
        letter-spacing: 0em;
      }

      .cls-2, .cls-4, .cls-5 {
        stroke-width: 0px;
      }

      .cls-6 {
        letter-spacing: -.13em;
      }

      .cls-7 {
        letter-spacing: -.05em;
      }

      .cls-8 {
        font-size: 20px;
      }

      .cls-8, .cls-9 {
        font-family: Optima-Regular, Optima;
      }

      .cls-8, .cls-9, .cls-10, .cls-5 {
        fill: #00539a;
      }

      .cls-9 {
        font-size: 36px;
      }

      .cls-11 {
        letter-spacing: -.04em;
      }

      .cls-10 {
        font-family: PTSans-Regular, 'PT Sans';
        font-size: 12px;
      }

      .cls-4 {
        fill: #fff;
      }
    </style>
  </defs>
  <path class="cls-5" d="m0,74.73C1.51,32.83,36.85-.41,78.37,0c41.48.41,74.85,34.25,76.56,74.28,1.77,41.47-30.95,77.78-71.58,80.55C39.89,157.78-.09,121.49,0,74.74h0Z"/>
  <path class="cls-1" d="m4.56,74.88C6,35.24,39.42,3.8,78.69,4.19c39.24.39,70.8,32.4,72.42,70.27,1.68,39.23-29.27,73.58-67.71,76.19-41.11,2.79-78.93-31.54-78.85-75.76h0Z"/>
  <path class="cls-2" d="m1.38,75.3C2.87,33.94,37.75,1.14,78.74,1.54c40.94.41,73.89,33.81,75.57,73.32,1.74,40.93-30.55,76.78-70.65,79.51C40.76,157.29,1.29,121.47,1.38,75.3h0Z"/>
  <polygon class="cls-4" points="115 15.38 86.48 31.02 86.48 37.98 137.88 37.98 134.59 32.83 90.77 35.33 131.03 27.11 125.5 23.02 90.51 32.93 119.9 18.33 115 15.38"/>
  <polygon class="cls-4" points="40.74 15.38 69.26 31.02 69.26 37.98 17.87 37.98 21.16 32.83 64.97 35.33 24.72 27.11 30.25 23.02 65.23 32.93 35.84 18.33 40.74 15.38"/>
  <rect class="cls-4" x="69.26" y="27.61" width="17.22" height="2.7"/>
  <path class="cls-4" d="m72.18,27.07h11.39c0-.41-.05-2.1-1.35-3.58-1.26-1.42-2.84-1.7-3.27-1.76,0-.71,0-1.42,0-2.14.41,0,.81-.02,1.22-.03,0-.19,0-1.01-.62-1.73-.74-.84-1.75-.85-1.89-.85-1.1,0-1.77.74-1.88.86-.64.73-.64,1.57-.63,1.76.41,0,.82-.02,1.23-.03.02.7.03,1.41.06,2.11-.47.11-1.83.48-2.93,1.75-1.28,1.48-1.32,3.18-1.32,3.61h0Z"/>
  <polygon class="cls-4" points="71.8 29.77 71.8 38.63 74.12 38.63 74.12 30.11 74.12 29.77 71.8 29.77"/>
  <polygon class="cls-4" points="76.72 29.77 76.72 38.63 79.03 38.63 79.03 30.11 79.03 29.77 76.72 29.77"/>
  <polygon class="cls-4" points="81.25 29.77 81.25 38.63 83.57 38.63 83.57 30.11 83.57 29.77 81.25 29.77"/>
  <polygon class="cls-4" points="86.48 38.63 86.48 42.22 71.8 42.22 69.26 42.22 69.26 38.63 86.48 38.63"/>
  <polygon class="cls-4" points="71.8 42.22 83.57 42.22 86.48 98.88 69.26 98.88 71.8 42.22"/>
  <path class="cls-4" d="m9.64,98.88h138.27l-4.31,10.71c-2.16.7-5.5,1.49-9.48,1.13-6.17-.56-7.5-3.3-12.67-3.55-6.32-.31-6.79,3.67-13.53,3.95-7.05.3-7.9-4-14.85-3.81-7.21.19-7.94,4.87-15.04,4.97-6.72.09-7.39-4.08-14.67-4.34-7.41-.26-8.09,4.04-15.3,3.82-8.23-.24-9.32-5.89-16.51-4.87-3.86.54-5.49,2.45-11.26,2.87-2.79.2-5.1-.04-6.59-.28l-4.06-10.61h0Z"/>
  <rect class="cls-4" x="43.57" y="43.9" width="18.47" height="48.2"/>
  <polygon class="cls-4" points="19.72 43.9 19.72 92.1 38.19 92.1 38.19 59.92 38.19 43.9 19.72 43.9"/>
  <rect class="cls-4" x="38.19" y="60.12" width="5.37" height="11.02"/>
  <path class="cls-4" d="m116.24,75.11h-2.16v-10.54h20.96v28.31c-3.23,0-6.46-.02-9.69-.02,0-1.11,0-2.24,0-3.35h-.9c-.03.44-.12,1.02-.4,1.65-.15.34-.4.89-.95,1.35,0,0-.47.4-1.12.62-1.08.36-10.31.4-22.93.13-.57-.07-2.43-.34-4.02-1.91-1.68-1.65-1.94-3.63-2-4.17,0-12.32-.02-24.63-.03-36.96.12-.69.54-2.54,2.14-4.17,1.64-1.68,3.53-2.12,4.21-2.25,9.75.04,19.51.08,29.27.12.66.07,2.65.37,4.37,2.01,1.36,1.29,1.85,2.76,2.04,3.43v9.77c-6.18,0-12.36.02-18.54.03,0-.13.1-2.05-1.17-2.92-.17-.11-.65-.43-1.31-.41-.59.02-1,.29-1.2.43-1.15.78-1.27,2.29-1.29,2.55-.02,7.19-.03,14.38-.05,21.57.25,1.09,1.2,1.87,2.28,1.89,1.16.03,2.2-.8,2.44-1.96.02-1.73.03-3.45.05-5.18h0Z"/>
  <path class="cls-4" d="m65.16,127.49l-6.05-2.06c-.13.34-.3.87-.34,1.52-.06,1.31.49,1.58.39,2.56-.13,1.34-1.21,1.6-1.01,2.61.1.49.49,1.05,1,1.32.48.26.75.11,1,.39.28.31.15.72.13,1.68-.02.6.03,1.1.06,1.45,2.05-1.06,4.11-2.12,6.17-3.18-.8-1.21-.91-2.16-.86-2.81.07-.86.44-1.55.14-2.47-.16-.48-.43-.82-.63-1.03v.02Z"/>
  <path class="cls-4" d="m71.33,123.94c1.11-1.01,2.99-2.49,5.66-3.55,2.46-.97,4.66-1.22,6.11-1.27.26.72.57,1.84.58,3.24,0,1.46-.31,2.62-.58,3.35-3.11,2.32-6.22,4.63-9.32,6.95-.49-.14-1-.28-1.49-.43.18-.39.51-.99,1.07-1.58.98-1.05,1.83-1.17,2.85-2.02.52-.43,1.21-1.16,1.79-2.4-2.23-.76-4.45-1.52-6.68-2.3h0Z"/>
  <path class="cls-4" d="m69.42,125.56c.34-.35.7-.7,1.04-1.06.96.38,1.97.75,3.06,1.1,1.27.41,2.49.75,3.64,1.03-.37.41-.96,1.01-1.79,1.62-1.27.92-1.96,1.02-2.76,1.81-.46.45-1.04,1.21-1.39,2.51-.54.05-1.09.09-1.64.14.08-.56.28-1.45.87-2.31.56-.82,1.23-1.26,2.41-2.01.58-.37,1.4-.85,2.44-1.32-.95-.18-1.95-.39-3.01-.66-1.02-.27-1.98-.55-2.87-.85h0Z"/>
  <path class="cls-4" d="m68.95,125.45c.54-.9,1.5-2.25,3.03-3.48,1.29-1.04,2.45-1.57,3.64-2.09,1.16-.52,2.84-1.16,4.99-1.58-.56-.08-1.17-.2-1.81-.37-1.21-.31-2.25-.71-3.12-1.12-.77.13-2.38.53-3.85,1.83-1.19,1.06-1.72,2.21-1.84,2.49-.3.67-.44,1.27-.51,1.72l-.51,2.61h0Z"/>
  <path class="cls-4" d="m70.92,126.86c.5.13.68.34.66.58-.06.72-1.88,1.73-1.88,1.73l3.23-1.79-2.01-.51h0Z"/>
  <path class="cls-4" d="m84.49,130.7c2.54-1.68,3.29-2.15,3.9-3.28.9-1.67.74-3.37.71-3.63-.23-2.07-1.56-3.36-1.27-3.6.27-.23,1.39,1.18,3.85,2.25.29.13.86.34,1.99.75,2.09.77,2.28.78,2.77,1.02.75.37,1.78,1.06,2.76,2.5-.45.63-1.22,1.58-2.4,2.46-1.02.78-1.98,1.23-5.09,2.42-2.56.98-3.85,1.47-4.32,1.6-1.58.41-4.06.83-7.31.43,2.08-1.39,3.6-2.4,4.41-2.93h0Z"/>
  <path class="cls-4" d="m69.89,133.8c.52-.11,1.31-.22,2.23-.06.96.17,1.38.5,2.26.78.68.21,1.68.4,3.03.25-.58.62-1.57,1.48-3,2.06-.56.22-1.08.36-1.54.44-.32-.59-.68-.95-.97-1.17-.64-.5-1.11-.51-1.53-1.01-.34-.41-.45-.9-.49-1.27v-.02Z"/>
  <path class="cls-4" d="m79.69,134.28c.21-.23.75.03,1.47.16.54.1,1.36.16,2.42-.11-.35.32-.94.75-1.75,1.01-.3.09-.58.14-.83.18-.37-.05-.74-.11-1.11-.16-.18-.37-.39-.86-.19-1.07h0Z"/>
  <path class="cls-4" d="m85.38,119.35c.17,0,.37.02.6.08.15.04.28.09.4.14-.02.12-.23,1.62-.5,1.6-.19-.02-.39-.78-.5-1.82Z"/>
  <text class="cls-9" transform="translate(167.32 77.5)"><tspan x="0" y="0">H</tspan><tspan class="cls-11" x="28.01" y="0">AW</tspan><tspan x="84.78" y="0">AII INSURANCE </tspan></text>
  <text class="cls-8" transform="translate(166.98 98.87)"><tspan x="0" y="0">AND GUARANTY COM</tspan><tspan class="cls-7" x="212.28" y="0">P</tspan><tspan x="222.3" y="0">AN</tspan><tspan class="cls-6" x="251.2" y="0">Y</tspan><tspan class="cls-3" x="260.84" y="0">, LIMITED</tspan></text>
  <text class="cls-10" transform="translate(504.45 52.37)"><tspan x="0" y="0">TM</tspan></text>
</svg>