<?xml version="1.0" encoding="utf-8"?>
<!-- Generator: Adobe Illustrator 28.0.0, SVG Export Plug-In . SVG Version: 6.00 Build 0)  -->
<svg version="1.1" id="Layer_1" xmlns="http://www.w3.org/2000/svg" xmlns:xlink="http://www.w3.org/1999/xlink" x="0px" y="0px"
	 viewBox="0 0 200 400" style="enable-background:new 0 0 200 400;" xml:space="preserve">
<style type="text/css">
	.st0{fill:#FFFFFF;stroke:#15467B;stroke-width:0.25;stroke-miterlimit:10;}
	.st1{fill:#FFFFFF;}
	.st2{fill:#91AEDA;stroke:#15467B;stroke-width:0.25;stroke-miterlimit:10;}
	.st3{fill:#F1F1F2;stroke:#15467B;stroke-width:0.2;stroke-miterlimit:10;}
	.st4{fill:#15467B;}
	.st5{fill:#F1F1F2;stroke:#15467B;stroke-width:0.25;stroke-miterlimit:10;}
	.st6{fill:#15467B;stroke:#15467B;stroke-width:0.25;stroke-miterlimit:10;}
	.st7{opacity:0.51;}
	.st8{fill:#15467B;stroke:#15467B;stroke-width:0.6;stroke-miterlimit:10;}
	.st9{fill:none;stroke:#15467B;stroke-width:0.15;stroke-miterlimit:10;}
</style>
<path class="st0" d="M56.71,152.42c-0.04,16.84-0.07,33.68-0.13,50.51c6.62,2.4,16.15,4.93,27.72,4.93
	c14.25,0.02,25.64-3.77,32.81-6.88c-0.72-16.94-1.43-33.9-2.15-50.85c-5.42,3.09-14.32,7.17-25.84,8.2
	c-14.79,1.33-26.39-3.07-32.44-5.92H56.71z"/>
<path class="st1" d="M55.12,299.55c4.61,0.46,7.08,1.51,8.49,2.46c0.29,0.19,1.45,1.01,3.11,1.3c1.22,0.21,2.16,0.37,2.88-0.21
	c1.56-1.28,0.25-4.76,1.84-5.9c0.73-0.54,1.25,0.02,2.38-0.77c0.45-0.31,0.8-0.72,1.52-1.57c0.82-0.97,0.91-1.24,1.29-1.33
	c0.55-0.12,0.98,0.33,1.9,1.1c0,0,0.39,0.33,2.84,2.17c1.56,1.16,2.34,1.76,2.97,1.88c1.31,0.27,3.08-0.19,4.11-1.53
	c1.16-1.53,0.46-3.04,1.82-4.87c0.66-0.89,1.18-0.99,1.84-1.53c2.9-2.42,1.23-7.41,4.13-14.1c0.8-1.86,1.61-3.04,2.77-3.52
	c0.88-0.35,1.34-0.08,2.91-0.33c1.79-0.29,2.7-0.43,3.34-1.1c2-2.01-1.22-10.56,1.81-9.38c3.27,1.3,15.41-0.33,16.58-4.43
	c0.68-2.4-2.25-6.23-5.29-8.41c-11.03-7.85-23.51,5.9-45.76,5.38c-7.26-0.17-13.12-1.8-16.74-3.04c-0.25,15.91-0.5,31.81-0.73,47.72
	H55.12z"/>
<path class="st0" d="M121.64,99.38c0.05,0.68,0.07,1.24,0.09,1.64c0,0.62,0,0.64,0,1.22c0.04,1.04,0.11,1.18,0.04,1.51
	c-0.16,0.64-0.66,0.99-0.91,1.18c-3.31,2.34-15.32,4.08-15.32,4.08c-1.81,0.27-2.59,0.41-4.47,0.64c-1.72,0.21-3.88,0.48-6.62,0.64
	c-1.61,0.08-3.33,0.1-6.76,0.12c-2.63,0-3.97,0-5.95-0.02c-3.09-0.08-2.77-0.17-5.94-0.23c-1.5-0.04-2.56-0.04-4.22-0.19
	c-0.8-0.06-1.48-0.17-2.84-0.35c-2.18-0.29-3.88-0.56-5.49-0.79c-3.02-0.46-4.54-0.7-4.74-0.72c0,0-5.79-1.08-9.69-4.27
	c-0.11-0.08-0.36-0.29-0.39-0.6c0-0.08,0-0.14,0.02-0.39c0-0.21,0-0.35,0-0.41c0-0.23,0-1.22,0.07-3.87"/>
<path class="st0" d="M56.94,107.67c-0.07,14.91-0.16,29.84-0.23,44.76c5.83,2.65,16.25,6.4,29.58,5.84
	c13.07-0.56,23.08-5.03,28.7-8.12c-0.61-14.21-1.2-28.42-1.81-42.6c-5.76,1.3-10.76,1.99-14.72,2.38c-6.08,0.6-10.73,0.6-14.16,0.58
	c-2.86,0-7.13-0.04-12.7-0.56c-3.97-0.37-8.94-1.04-14.66-2.26L56.94,107.67z"/>
<path class="st0" d="M55.87,251.81c-0.25,15.97-0.48,31.92-0.73,47.88c0.97,0.54,2,1.04,3.13,1.49c4.29,1.74,8.26,2.13,11.34,2.05"
	/>
<path class="st0" d="M56.59,202.94c-0.25,16.3-0.48,32.6-0.73,48.88c7.06,2.59,18.15,5.59,31.86,5.01
	c13.27-0.56,23.84-4.29,30.63-7.35c-0.64-1.26-1.07-1.78-1.34-2.01c-0.07-0.06-0.29-0.23-0.32-0.5c-0.04-0.21,0.07-0.29,0.13-0.58
	c0.09-0.52-0.13-0.72,0-0.91c0.18-0.25,0.66,0.12,0.91-0.14c0.18-0.21,0.16-0.62,0.09-0.89c-0.11-0.37-0.34-0.43-0.3-0.64
	c0.05-0.29,0.59-0.31,0.61-0.56c0-0.14-0.16-0.17-0.23-0.37c-0.14-0.35,0.25-0.6,0.34-1.3c0.04-0.35-0.04-0.54,0.09-0.68
	c0.13-0.14,0.34-0.12,0.5-0.08c-0.05-1.06-0.09-2.11-0.14-3.17c-0.52-12.22-1.05-24.44-1.57-36.64c-7.19,3.11-18.58,6.9-32.81,6.88
	c-11.57,0-21.1-2.55-27.72-4.93H56.59z"/>
<path class="st2" d="M70.75,144.99c2.18,0,4.38,0.04,6.56,0.06c0.02-5.78,0.04-11.56,0.07-17.34c-2.2,0-4.4,0-6.6,0
	c0,5.76-0.02,11.52-0.04,17.25L70.75,144.99z"/>
<path class="st0" d="M77.29,145.05c0,0.99,0,1.99,0,2.98c-3.2-0.04-6.42-0.08-9.62-0.12c0.04-0.12,0.07-0.23,0.09-0.35
	c0.2-0.19,0.38-0.37,0.57-0.56c1.61-1.41,2.41-2.13,2.4-2.15c0,0-1.07,0.89-3.18,2.69c-0.04-6.63-0.07-13.23-0.11-19.86
	c2.02,0,3.31,0.02,3.31,0.02l0,0c0,0,0,6.71,0,17.13c2.18,0.06,4.36,0.12,6.54,0.19L77.29,145.05z"/>
<path class="st2" d="M70.71,230.81c2.18,0,4.38,0.04,6.56,0.06c0.02-5.78,0.04-11.56,0.07-17.34c-2.2,0-4.4,0-6.6,0
	c0,5.76-0.02,11.52-0.04,17.25V230.81z"/>
<path class="st0" d="M77.27,230.88c0,0.99,0,1.99,0,2.98c-3.2-0.04-6.42-0.08-9.62-0.12c0.04-0.12,0.07-0.23,0.09-0.35
	c0.2-0.19,0.38-0.37,0.57-0.56c1.61-1.41,2.41-2.13,2.4-2.15c0,0-1.07,0.89-3.18,2.69c-0.04-6.63-0.07-13.23-0.11-19.86
	c2.02,0,3.31,0.02,3.31,0.02l0,0c0,0,0,6.71,0,17.13c2.18,0.06,4.36,0.12,6.54,0.19L77.27,230.88z"/>
<path class="st3" d="M117.6,97.02c0,0.43,0,0.89,0.02,1.33c-11.91,3.94-22.21,5.12-29.72,5.41c0,0-19.76,0.62-34.13-4.14
	c0,0-0.07-0.02-0.18-0.04l0,0v-1.04c0,0,0-2.78,0-2.8c-1.11,0.14-2.02,0.35-2.68,0.54c-1.29,0.37-1.79,0.66-2.11,1.18
	c-0.09,0.14-0.34,0.58-0.3,1.1c0,0,0.04,0.46,0.36,0.87c5.02,6.73,34.99,6.86,34.99,6.86s15.75,0.06,30.79-3.6
	c6.2-1.51,7.12-2.88,7.08-3.44c-0.02-0.25-0.27-0.66-0.5-0.93c-0.36-0.41-0.77-0.56-1.41-0.75
	C119.22,97.39,118.47,97.19,117.6,97.02z"/>
<g>
	<path class="st4" d="M53.53,99.4c-0.13,0-0.38-0.08-0.63-0.27c-0.29-0.23-0.43-0.52-0.48-0.66"/>
	<path class="st4" d="M53.53,99.13L53.53,99.13c-0.02,0-0.05,0-0.07,0c-0.05,0-0.11-0.04-0.16-0.06h-0.04c-0.05,0,0.04,0,0,0
		s-0.07-0.04-0.11-0.06c-0.04,0-0.05-0.04-0.09-0.06c0,0-0.04-0.02-0.05-0.04c-0.05-0.04,0.04,0.04,0,0
		c-0.05-0.04-0.11-0.1-0.14-0.17c-0.02-0.02-0.04-0.06-0.05-0.08c0,0,0,0,0-0.02c0,0.02,0.02,0.04,0,0c0,0,0-0.02-0.02-0.04
		c-0.05-0.08-0.09-0.17-0.13-0.25c-0.05-0.12-0.21-0.17-0.3-0.08c-0.11,0.08-0.13,0.23-0.07,0.35c0.11,0.25,0.27,0.5,0.46,0.66
		c0.25,0.23,0.54,0.35,0.86,0.41c0.13,0,0.23-0.12,0.21-0.25c0-0.17-0.11-0.25-0.21-0.25l0,0L53.53,99.13z"/>
</g>
<path class="st5" d="M101.74,79.33c-20.89-0.58-26.52,0.6-36.14,0.75c0,0-2.68,0.06-6.47,0.95c-2.16,0.52-5.42,1.33-5.44,2.44
	c0,0.27,0.2,0.81,2.97,1.93c4.02,1.62,7.1,1.95,7.1,1.95c9.12,0.99,14.14,1.28,14.14,1.28c4.38,0.27,6.46,0.33,8.4,0.33
	c1.36,0,3.45,0,5.97-0.1c0,0,3.04-0.12,5.92-0.37c3.99-0.35,19.29-2.17,19.33-4.7c0.02-1.93-8.69-3.6-9.94-3.85
	c-2.91-0.54-5.17-0.62-5.86-0.64L101.74,79.33z"/>
<path class="st5" d="M53.71,83.48c-0.04,5.36-0.07,10.71-0.13,16.07c7.69,2.28,18.01,4.41,30.22,4.39c13.97,0,25.55-2.82,33.8-5.59
	c0-4.62,0-9.26,0-13.88c-3.83,1.33-9.24,2.92-15.88,3.85c-4.33,0.62-8.83,0.64-17.86,0.66c0,0-10.89,0.04-22.49-2.05
	c-0.91-0.17-2.47-0.48-4.33-1.37c-1.48-0.7-2.63-1.53-3.33-2.07L53.71,83.48z"/>
<path class="st6" d="M57.03,85.55c-0.02,5.41-0.04,9.4-0.05,14.81"/>
<path class="st6" d="M61.38,86.93c-0.04,5.51-0.11,8.99-0.13,14.52"/>
<g>
	<path class="st4" d="M65.74,75.87c2.15,1.04,5.02,2.26,8.55,3.23c2.32,0.64,5.92,1.62,10.69,1.68c4.33,0.06,7.56-0.64,10.53-1.28
		c3.81-0.83,6.94-1.91,9.19-2.8C91.72,76.43,78.72,76.16,65.74,75.87z"/>
	<path class="st4" d="M65.51,76.87c6.03,2.88,12.57,4.76,19.1,4.93c6.85,0.17,13.86-1.62,20.33-4.1c0.95-0.37,0.8-2.01-0.23-2.03
		c-12.98-0.27-25.98-0.54-38.96-0.83c-1.14-0.02-1.14,2.05,0,2.07c12.98,0.27,25.98,0.54,38.96,0.83l-0.23-2.03
		c-6.33,2.44-13.16,4.2-19.87,4.04c-6.71-0.17-12.75-2.05-18.63-4.87c-1.05-0.52-1.52,1.49-0.48,1.99H65.51z"/>
</g>
<path class="st6" d="M65.76,87.35c-0.04,5.78,0,9.07,0,14.87"/>
<path class="st6" d="M70.16,87.74c-0.04,5.78-0.18,9.24-0.21,15.02"/>
<path class="st6" d="M74.7,88.16c-0.02,5.18-0.11,9.94-0.13,15.12"/>
<path class="st6" d="M79.46,88.9c-0.02,5.18-0.04,9.38-0.05,14.58"/>
<path class="st6" d="M83.87,88.98c-0.02,5.3-0.04,9.65-0.05,14.95"/>
<path class="st6" d="M88.02,89.05c-0.02,5.3-0.04,9.55-0.07,14.87"/>
<path class="st6" d="M92.13,89.13c-0.02,5.18-0.18,9.38-0.2,14.56"/>
<path class="st6" d="M96.71,88.88c-0.02,5.16-0.11,9.22-0.13,14.35"/>
<path class="st6" d="M101.75,88.3c-0.04,5.05-0.05,9.13-0.09,14.19"/>
<path class="st6" d="M110.27,86.91c-0.02,4.78-0.04,8.91-0.05,13.69"/>
<path class="st6" d="M114.68,85.32c0,4.56-0.04,9.11-0.05,13.67"/>
<path class="st6" d="M117.47,83.83c0.11,2.69,0.18,5.45,0.2,8.28c0.02,2.17,0,4.33,0,6.4"/>
<path class="st6" d="M106.22,87.76c-0.02,4.89-0.09,8.84-0.13,13.73"/>
<g>
	<path class="st1" d="M63.6,50.07c0.7-3.58,2.49-10.23,7.51-16.11c3.47-4.06,6.97-6.01,8.65-6.83c2.81-1.37,4.6-1.55,5.45-1.62
		c0.57-0.02,2.88-0.12,5.95,1.18c4.56,1.93,7.28,5.36,8.89,7.48c4.31,5.61,6.06,11.62,6.83,15.57c-2.18,1.12-5.24,2.46-9.05,3.46
		c-4.99,1.33-8.85,1.43-13.02,1.51c-6.1,0.12-10.28,0.17-15.38-1.74c-2.54-0.95-4.52-2.09-5.85-2.94V50.07z"/>
	<path class="st4" d="M64.04,50.21c2.68-13.36,14.82-28.77,27.66-22.7c6.53,3.09,11.41,10.65,13.7,18.14
		c0.21,0.68,0.41,1.39,0.59,2.09c0.05,0.21,0.27,0.85,0.25,1.1c-0.05,0.89,0.11,0.35-0.46,0.89c-1.16,1.08-3.58,1.55-4.99,2.05
		c-3.99,1.37-8.06,2.09-12.19,2.32c-8.62,0.43-17,0.43-24.77-4.47c-0.5-0.31-0.97,0.58-0.45,0.89c6.79,4.31,13.84,4.89,21.44,4.74
		c7.6-0.14,15.13-1.45,22.3-5.05c0.18-0.08,0.25-0.37,0.2-0.58c-2.29-11.52-10.75-25.35-22.23-24.6c-4.95,0.33-9.89,3.81-13.43,7.62
		c-4.31,4.62-7.17,10.71-8.49,17.29c-0.13,0.64,0.73,0.93,0.86,0.27L64.04,50.21z"/>
</g>
<g class="st7">
	<path class="st4" d="M72.18,35.57c-4.15,6.01-5.29,12.68-5.65,15.39c-0.75-0.41-1.52-0.83-2.27-1.24c0.16-0.68,0.3-1.26,0.43-1.72
		c0.46-1.74,0.93-2.98,1.09-3.4c0.52-1.41,1-2.4,1.38-3.15c0.93-1.95,1.79-3.33,2.11-3.85c0.3-0.48,0.66-1.06,1.18-1.78
		c0.29-0.41,1.25-1.72,2.74-3.25c0.73-0.77,1.79-1.84,3.27-2.9c2.56-1.82,5.04-2.67,5.06-2.63c0,0.02-0.66,0.35-0.98,0.52
		c-2.09,1.12-5.6,4.02-8.35,7.99V35.57z"/>
</g>
<g>
	<path class="st1" d="M83.53,26c-2.41,2.07-6.44,6.09-9.42,12.45c-2.75,5.84-3.47,11.18-3.65,14.37"/>
	<path class="st4" d="M83.3,25.57C75.77,32.09,70.69,41.89,70,52.84c-0.04,0.66,0.86,0.66,0.89,0c0.68-10.54,5.61-20.09,12.86-26.37
		c0.45-0.39,0-1.28-0.45-0.89l0,0V25.57z"/>
</g>
<g class="st7">
	<path class="st4" d="M83.94,26.44c-0.11,0.12-0.38,0.5-0.48,0.64c-1.77,2.36-2.74,3.65-2.95,3.91c-1.34,1.8-2.24,3.87-3.18,6.01
		c-2.77,6.38-4.26,14.21-4.61,16.24c-0.32-0.08-0.64-0.19-0.98-0.29c-0.25-0.08-0.48-0.17-0.72-0.23c0.05-0.7,0.13-1.64,0.29-2.69
		c0.14-0.95,0.27-1.64,0.39-2.26c0.21-1.1,0.46-2.3,0.93-3.81c0.07-0.25,0.25-0.81,0.55-1.64c0.45-1.22,1.22-3.29,2.52-5.67
		c1.27-2.32,2.49-3.89,3.24-4.87c1.16-1.49,2.81-3.4,4.99-5.32L83.94,26.44z"/>
</g>
<g>
	<path class="st1" d="M85.23,25.53c-1.36,3.38-2.75,7.58-3.76,12.53c-1.27,6.32-1.48,11.89-1.34,16.2"/>
	<path class="st4" d="M84.84,25.26c-3.65,9.07-5.45,18.97-5.17,29c0.02,0.66,0.91,0.66,0.89,0c-0.29-9.82,1.47-19.55,5.04-28.46
		c0.23-0.6-0.54-1.12-0.77-0.52l0,0V25.26z"/>
</g>
<g>
	<path class="st1" d="M86.98,26c0.59,1.16,1.39,2.94,2.11,5.2c1.56,4.8,1.79,8.84,2.11,14.97c0.11,1.97,0.2,4.66,0.2,7.87"/>
	<path class="st4" d="M86.61,26.27c4.15,8.41,4.38,18.31,4.36,27.77c0,0.66,0.89,0.66,0.89,0c0.02-9.65-0.25-19.72-4.49-28.31
		c-0.29-0.58-1.05-0.06-0.77,0.52l0,0V26.27z"/>
</g>
<g>
	<path class="st1" d="M88.34,26c2.61,2.01,7.33,6.23,10.59,13.36c2.25,4.95,2.99,9.46,3.24,12.49"/>
	<path class="st4" d="M88.11,26.46c7.46,5.78,12.71,14.93,13.59,25.39c0.05,0.66,0.95,0.66,0.89,0
		c-0.91-10.83-6.29-20.28-14.04-26.28C88.08,25.19,87.63,26.09,88.11,26.46C88.11,26.46,88.11,26.46,88.11,26.46z"/>
</g>
<g>
	<path class="st1" d="M64.83,52.72c0.09,7.81,0.2,15.62,0.29,23.42c4.26,1.95,11.41,4.54,20.53,4.66c8.62,0.12,15.48-2.01,19.7-3.73
		c-0.16-8.41-0.3-16.82-0.46-25.23c-5.11,1.51-11.94,2.96-20.04,3.13C76.79,55.14,69.96,54,64.83,52.72z"/>
	<path class="st4" d="M64.47,52.72c0.09,7.81,0.2,15.62,0.29,23.42c0,0.21,0.11,0.33,0.27,0.39c12.91,5.84,27.34,6.17,40.43,0.93
		c0.14-0.06,0.27-0.21,0.27-0.39c-0.16-8.41-0.3-16.82-0.46-25.23c0-0.27-0.23-0.48-0.45-0.39c-13.05,3.81-26.71,4.12-39.87,0.87
		c-0.45-0.1-0.64,0.68-0.2,0.81c13.29,3.27,27.07,2.98,40.25-0.87l-0.45-0.39c0.09,4.68,0.18,9.34,0.25,14.02
		c0.04,2.17,0.07,4.35,0.13,6.54c0.02,0.99,0.36,2.82,0.07,3.73c-0.25,0.77-0.18,0.72-0.95,1.01c-5.94,2.22-12.16,3.31-18.4,3.23
		c-6.24-0.08-12.52-1.37-18.44-3.77c-0.32-0.14-0.95-0.29-1.23-0.52c-0.75-0.6-0.52-1.68-0.54-2.75c-0.02-2.2-0.05-4.37-0.07-6.57
		c-0.05-4.68-0.11-9.36-0.18-14.04c0-0.54-0.72-0.54-0.72,0L64.47,52.72z"/>
</g>
<path class="st4" d="M62.36,49.01l-1,0.62c-0.45,0.29-0.41,1.06,0,1.35c6.46,4.52,15,5.36,22.37,5.47
	c8.71,0.12,17.15-1.39,24.93-6.11c0.5-0.31,0.39-1.28-0.16-1.43l-0.75-0.19c-0.84-0.21-1.2,1.3-0.36,1.49l0.75,0.19l-0.16-1.43
	c-7.56,4.6-15.77,6.03-24.25,5.9c-7.12-0.1-15.45-0.89-21.69-5.26v1.35l1-0.62c0.77-0.48,0.09-1.8-0.68-1.35l0,0L62.36,49.01z"/>
<g>
	<path class="st1" d="M70.32,63.8l-2.95,4.74"/>
	<path class="st4" d="M70.14,63.68l-2.95,4.74c-0.16,0.27,0.21,0.54,0.39,0.27l2.95-4.74C70.69,63.68,70.32,63.41,70.14,63.68
		C70.14,63.68,70.14,63.68,70.14,63.68z"/>
</g>
<g>
	<path class="st1" d="M71.23,64.84l-2.95,4.74"/>
	<path class="st4" d="M71.03,64.71l-2.95,4.74c-0.16,0.27,0.21,0.54,0.39,0.27l2.95-4.74C71.59,64.71,71.21,64.44,71.03,64.71
		C71.03,64.71,71.03,64.71,71.03,64.71z"/>
</g>
<g>
	<path class="st1" d="M81.48,58.21c-1.72,2.57-3.42,5.12-5.13,7.68"/>
	<path class="st4" d="M81.28,58.06c-1.72,2.57-3.42,5.12-5.13,7.68c-0.18,0.27,0.21,0.52,0.39,0.27c1.72-2.57,3.42-5.12,5.13-7.68
		C81.85,58.06,81.46,57.81,81.28,58.06L81.28,58.06z"/>
</g>
<g>
	<path class="st1" d="M101.38,64.84c-1.07,1.74-2.13,3.5-3.2,5.24"/>
	<path class="st4" d="M101.18,64.71c-1.07,1.74-2.13,3.5-3.2,5.24c-0.16,0.27,0.21,0.54,0.39,0.27c1.07-1.74,2.13-3.5,3.2-5.24
		C101.74,64.71,101.36,64.44,101.18,64.71L101.18,64.71z"/>
</g>
<g>
	<path class="st1" d="M82.44,60.13l-4.24,6.48"/>
	<path class="st4" d="M82.25,59.99l-4.24,6.48c-0.18,0.27,0.21,0.52,0.39,0.27l4.24-6.48C82.82,59.99,82.42,59.74,82.25,59.99
		L82.25,59.99z"/>
</g>
<g>
	<path class="st1" d="M74.5,56.32c0.07,3.83,0.04,7.66-0.07,11.47c-0.11,3.77-0.32,7.54-0.14,11.31"/>
	<path class="st4" d="M74.15,56.32c0.05,3.75,0.04,7.5-0.07,11.25c-0.11,3.75-0.3,7.68-0.14,11.52c0.02,0.54,0.73,0.54,0.72,0
		c-0.16-3.85,0.04-7.68,0.14-11.52c0.11-3.83,0.13-7.5,0.07-11.25C74.86,55.78,74.15,55.78,74.15,56.32L74.15,56.32z"/>
</g>
<g>
	<path class="st1" d="M95.82,55.33c0.13,6.19-0.02,12.41-0.16,18.6c-0.05,1.86-0.09,3.71-0.14,5.57"/>
	<path class="st4" d="M95.46,55.33c0.16,8.06-0.11,16.11-0.3,24.17c0,0.54,0.7,0.54,0.72,0c0.2-8.06,0.46-16.11,0.3-24.17
		C96.18,54.79,95.44,54.79,95.46,55.33L95.46,55.33z"/>
</g>
<g>
	<path class="st1" d="M77.97,79.98v-6.75c0.02-0.77,0.2-3.11,1.72-5.2c0.41-0.58,1.98-2.69,4.52-2.84c3.06-0.19,5.02,2.65,5.44,3.29
		c1.25,1.95,1.41,4,1.43,4.85c0.07,2.26,0.13,4.52,0.2,6.75"/>
	<path class="st4" d="M78.2,79.98v-5.05c0-1.08-0.04-2.11,0.16-3.17c0.39-2.03,1.45-3.87,2.91-5.07c1.81-1.47,4.11-1.62,6.03-0.33
		c1.41,0.95,2.56,2.51,3.13,4.27c0.38,1.18,0.45,2.38,0.48,3.62c0.05,1.95,0.11,3.89,0.16,5.84c0,0.33,0.46,0.33,0.45,0
		c-0.05-1.95-0.11-3.89-0.16-5.84c-0.04-1.18-0.09-2.3-0.39-3.44c-0.52-1.88-1.63-3.5-3.02-4.62c-1.79-1.41-4.06-1.68-6.03-0.56
		c-1.59,0.91-2.9,2.61-3.56,4.49c-0.39,1.08-0.57,2.24-0.59,3.4c0,2.15,0,4.29,0,6.44c0,0.33,0.45,0.33,0.45,0l0,0L78.2,79.98z"/>
</g>
<g>
	<path class="st4" d="M78.53,70.95c1.97-0.02,3.92-0.04,5.88-0.06"/>
	<path class="st4" d="M78.53,71.19c1.97-0.02,3.92-0.04,5.88-0.06c0.29,0,0.29-0.52,0-0.52c-1.97,0.02-3.92,0.04-5.88,0.06
		C78.24,70.68,78.24,71.19,78.53,71.19L78.53,71.19z"/>
</g>
<g>
	<path class="st4" d="M78.15,72.71c3,0,6.01-0.04,9.01-0.06"/>
	<path class="st4" d="M78.15,72.95c3,0,6.01-0.04,9.01-0.06c0.29,0,0.29-0.52,0-0.52c-3,0-6.01,0.04-9.01,0.06
		C77.87,72.44,77.87,72.95,78.15,72.95L78.15,72.95z"/>
</g>
<g>
	<path class="st4" d="M78.22,74.71c3.2-0.02,6.42-0.04,9.62-0.06"/>
	<path class="st4" d="M78.22,74.98c3.2-0.02,6.42-0.04,9.62-0.06c0.29,0,0.29-0.52,0-0.52c-3.2,0.02-6.42,0.04-9.62,0.06
		C77.94,74.47,77.94,74.98,78.22,74.98L78.22,74.98z"/>
</g>
<g>
	<path class="st4" d="M79.6,68.56c2.47-0.02,4.94-0.04,7.4-0.06"/>
	<path class="st4" d="M79.6,68.81c2.47-0.02,4.94-0.04,7.4-0.06c0.29,0,0.29-0.52,0-0.52c-2.47,0.02-4.94,0.04-7.4,0.06
		C79.31,68.29,79.31,68.81,79.6,68.81L79.6,68.81z"/>
</g>
<path class="st8" d="M101.32,78.75c-0.21,0.46-0.5,1.16-0.7,2.07c-0.16,0.77-0.21,1.51-0.14,3.65c0.04,0.97,0.09,2.2,0.21,3.65"/>
<path class="st8" d="M67.91,77.59c0.18,0.54,0.39,1.28,0.55,2.2c0.07,0.35,0.2,1.12,0.25,2.3c0.11,2.22-0.09,4.41-0.23,5.61"/>
<path class="st2" d="M70.71,186.41c2.18,0,4.38,0.04,6.56,0.06c0.02-5.78,0.04-11.56,0.07-17.34c-2.2,0-4.4,0-6.6,0
	c0,5.76-0.02,11.52-0.04,17.25V186.41z"/>
<path class="st0" d="M77.27,186.47c0,0.99,0,1.99,0,2.98c-3.2-0.04-6.42-0.08-9.62-0.12c0.04-0.12,0.07-0.23,0.09-0.35
	c0.2-0.19,0.38-0.37,0.57-0.56c1.61-1.41,2.41-2.13,2.4-2.15c0,0-1.07,0.89-3.18,2.69c-0.04-6.63-0.07-13.23-0.11-19.86
	c2.02,0,3.31,0.02,3.31,0.02l0,0c0,0,0,6.71,0,17.13c2.18,0.06,4.36,0.12,6.54,0.19L77.27,186.47z"/>
<path class="st9" d="M57.52,252.44c-0.29,15.99-0.59,31.96-0.88,47.95"/>
<path class="st9" d="M58.98,252.77c-0.23,16.15-0.48,32.29-0.72,48.44"/>
<path class="st9" d="M62.13,253.89c-0.25,16.18-0.5,32.33-0.75,48.51"/>
<path class="st9" d="M65.51,254.98c-0.21,16.05-0.41,32.1-0.63,48.15"/>
<path class="st9" d="M68.71,255.54c-0.04,4.23-0.07,8.43-0.11,12.65"/>
<path class="st9" d="M69.5,189.7c-0.04,5.67-0.07,11.35-0.11,17"/>
<path class="st9" d="M72.89,189.7c-0.04,5.84-0.07,11.68-0.11,17.52"/>
<path class="st9" d="M74.13,189.7c-0.04,5.84-0.07,11.68-0.11,17.52"/>
<path class="st9" d="M74.22,157.99c-0.04,5.84-0.13,5.3-0.18,11.14"/>
<path class="st9" d="M76.51,189.45c-0.04,6.07-0.07,12.14-0.11,18.23"/>
<path class="st9" d="M76.56,158.33c-0.04,3.6-0.07,7.23-0.11,10.83"/>
<path class="st9" d="M70.03,256.06c-0.04,4.23-0.07,8.43-0.11,12.65"/>
<path class="st9" d="M72.13,256.66c-0.04,3.85-0.07,7.68-0.11,11.54"/>
<path class="st9" d="M73.36,256.66c-0.04,3.77-0.07,7.54-0.11,11.29"/>
<path class="st9" d="M75.83,257.05c-0.04,3.71-0.07,7.44-0.11,11.14"/>
<path class="st9" d="M68.17,271.84c-0.27,10.5-0.55,21-0.82,31.5"/>
<path class="st9" d="M70.84,272.03c-0.21,9.24-0.41,18.47-0.63,27.71"/>
<path class="st9" d="M72.13,271.76c-0.21,8.66-0.43,17.31-0.63,25.97"/>
<path class="st9" d="M58.8,153.6c-0.25,16.61-0.5,33.2-0.75,49.81"/>
<path class="st9" d="M60.4,154.29c-0.23,16.15-0.48,33.55-0.72,49.71"/>
<path class="st9" d="M63.54,155.4c-0.25,16.18-0.5,33.1-0.75,49.25"/>
<path class="st9" d="M66.58,156.54c-0.25,16.18-0.5,33.1-0.75,49.25"/>
<path class="st9" d="M85.73,158.53c0.07,16.42,0.16,32.85,0.23,49.27"/>
<path class="st9" d="M81.14,158.53l0.23,49.27"/>
<path class="st9" d="M88.54,158.53l0.23,49.27"/>
<path class="st9" d="M91.88,157.68c0.32,16.59,0.66,33.16,0.98,49.75"/>
<path class="st9" d="M95.5,157.46c0.45,16.49,0.91,32.97,1.36,49.46"/>
<path class="st9" d="M97.93,156.92c0.55,16.51,1.11,33.01,1.65,49.52"/>
<path class="st9" d="M100.07,156.38c0.61,16.53,1.22,33.05,1.84,49.58"/>
<path class="st9" d="M103.24,155.4c0.77,16.55,1.52,33.1,2.29,49.67"/>
<path class="st9" d="M109.3,153.04c0.84,16.69,1.66,33.39,2.5,50.06"/>
<path class="st9" d="M112.59,151.45c0.8,16.84,1.61,33.68,2.4,50.51"/>
<path class="st9" d="M69.59,156.94c-0.07,4.06-0.16,8.12-0.23,12.18"/>
<path class="st9" d="M73.22,157.68c-0.04,3.81-0.05,7.64-0.09,11.45"/>
<path class="st9" d="M74.66,272.13c-0.11,7.95-0.2,15.91-0.3,23.86"/>
<path class="st9" d="M78.94,256.72c-0.14,12.68-0.27,25.37-0.41,38.05"/>
<path class="st9" d="M76.7,272.17c-0.02,7.17-0.04,14.33-0.05,21.5"/>
<path class="st9" d="M81.73,256.87c-0.11,13.36-0.23,26.74-0.34,40.1"/>
<path class="st9" d="M88.65,256.79c-0.07,13.5-0.13,27.01-0.2,40.53"/>
<path class="st9" d="M84.62,256.91c-0.09,13.98-0.18,27.96-0.27,41.94"/>
<path class="st9" d="M91.85,256.56c0.11,11.58,0.21,23.18,0.32,34.75"/>
<path class="st9" d="M95.64,256.1c0.2,6.9,0.39,13.79,0.61,20.69"/>
<path class="st9" d="M98.25,255.69c0.25,5.86,0.52,11.72,0.77,17.58"/>
<path class="st9" d="M101.45,255.07c0.16,5.96,0.34,11.91,0.5,17.87"/>
<path class="st9" d="M111.75,252.15c0.05,1.8,0.11,3.62,0.16,5.43"/>
<path class="st9" d="M104.54,254.34c0.29,5.65,0.57,11.31,0.88,16.96"/>
<path class="st9" d="M108.32,253.53c0.11,2.59,0.21,5.18,0.3,7.77"/>
<path class="st9" d="M114.88,251.26c0.07,1.95,0.14,3.87,0.2,5.82"/>
<path class="st9" d="M117.15,250.24c0.07,1.95,0.14,3.87,0.2,5.82"/>
<path class="st2" d="M71.23,268.9c2.18,0,4.38,0.04,6.56,0.06c0.02-5.78,0.04-11.56,0.07-17.34c-2.2,0-4.4,0-6.6,0
	c0,5.76-0.02,11.52-0.04,17.25V268.9z"/>
<path class="st0" d="M77.79,268.96c0,0.99,0,1.99,0,2.98c-3.2-0.04-6.42-0.08-9.62-0.12c0.04-0.12,0.07-0.23,0.09-0.35
	c0.2-0.19,0.38-0.37,0.57-0.56c1.61-1.41,2.41-2.13,2.4-2.15c0,0-1.07,0.89-3.18,2.69c-0.04-6.63-0.07-13.23-0.11-19.86
	c2.02,0,3.31,0.02,3.31,0.02l0,0c0,0,0,6.71,0,17.13c2.18,0.06,4.36,0.12,6.54,0.19L77.79,268.96z"/>
<g>
	<path class="st1" d="M128.58,241.56c-0.11,0.39-0.13,0.83-0.13,1.26c0,0.52,0.02,1.12,0.34,1.49c0.16,0.19,0.38,0.29,0.57,0.39
		c0.2,0.1,0.38,0.19,0.57,0.29c0.23,0.12,0.46,0.25,0.63,0.46c0.34,0.41,0.18,1.1,0.54,1.57c0.34,0.43,0.72,0.72,0.95,1.28
		c0.7,1.68-0.29,2.69,0.34,5.16c0.2,0.77,0.45,1.28,0.73,1.68c0.52,0.75,0.86,0.68,1.09,1.1c0.8,1.43-2.04,4.43-1.38,5.55
		c0.5,0.85,2.52-0.17,2.84,0.58c0.36,0.83-1.86,2.78-1.48,3.42c0.07,0.12,0.25,0.14,0.63,0.19c1.18,0.14,1.79-0.29,2.04,0.04
		c0.05,0.06,0.09,0.17-0.04,0.95c-0.21,1.37-0.45,1.55-0.5,2.44c-0.02,0.46,0,1.2,0,1.2c1.75-0.62,2.52-0.29,2.9,0.1
		c1.5,1.55-1.27,5.84,0.52,9.3c0.14,0.29,0.98,1.04,2.63,2.51c3.34,2.98,5.4,2.67,6.1,4.76c0.5,1.49-0.07,2.73,0.46,3.04
		c0.91,0.52,2.72-2.69,3.54-2.22c0.79,0.46-0.7,3.56,0.55,6.4c0.75,1.68,1.75,1.51,2,2.88c0.46,2.44-2.4,4.62-1.88,5.55
		c0.2,0.33,0.82,0.54,2.84-0.17c1.16-0.89,1.91-0.72,2.16-0.64c1.48,0.48,2.52,3.46,1.9,7.39c3.31-0.06,4.6,0.95,5.15,1.95
		c1.34,2.42-0.73,6.4,0.72,7.64c0.54,0.46,0.91-0.02,2.15,0.52c0.32,0.14,1.95,0.85,2.47,2.28c0.84,2.28-1.65,5.12-1.02,5.78
		c0.48,0.52,1.91-1.14,2.9-0.5c0.16,0.1,0.64,0.48,0.86,3.48c0.23,3.23-0.23,3.94,0.32,4.83c0.68,1.12,1.81,0.7,3.76,1.49
		c2.74,1.08,2.57,3.31,4.61,3.73c1.73,0.35,2.38-0.95,3.76-0.5c1.07,0.35,2.22,1.66,3.02,5.18c-16.29,12.14-27.93,13.98-33.6,14.27
		c-8.39,0.39-28.07-1.49-29.61-1.33c-0.2,0.02-0.8,0.17-1.48-0.14c-0.48-0.21-0.75-0.54-0.89-0.41c-0.18,0.14,0.09,0.85,0.25,1.33
		c0.29,0.87,0.93,2.9,0.45,4.54c-0.05,0.19-0.52,1.7-1.43,1.88c-0.59,0.12-1.07-0.33-2.2-0.15c-0.16,0.02-0.29,0.06-0.43,0.1
		c-0.36,0.1-1.22,0.37-3.09,1.68c-0.54,0.37-1.04,0.62-1.57,1.16c-0.18,0.19-0.57,0.54-1.38,1.26c-1.41,1.26-2.22,2.01-2.72,1.72
		c-0.45-0.25-0.46-1.2-0.5-1.2c-0.05,0,0,2.11,0.36,2.88c2.49,5.74,10.6,8.97,10.32,10.23c-0.21,1.04-5.83-0.25-11.39-0.33
		c-9.01-0.14-12.61,2.92-20.19,4.45c-8.8,1.78-10.07-1.1-23.48-1.91c-19.72-1.18-24.85,4.56-45.49,3.07
		c-6.72-0.5-12.12-1.53-15.34-2.26c-0.45-4.18,0.27-6.96,1.04-8.76c1.11-2.59,2.32-3.11,3.18-6.32c0.45-1.7,0.7-3.73,1.41-3.81
		c0.45-0.06,0.59,0.7,1.38,0.85c0.18,0.04,0.54,0.06,2.11-0.79c1.23-0.66,1.45-0.93,1.66-0.79c0.63,0.41-0.63,3.15,0,3.67
		c0.55,0.46,2.65-0.93,3.16-2.96c0.11-0.41,0.07-1.3,0-3.04c-0.11-2.69-0.21-3.07,0.07-3.58c0.54-0.95,1.45-0.54,2.72-1.3
		c1.63-0.99,3.06-3.42,2.65-5.05c-0.57-2.24-4.45-2.2-4.52-3.91c-0.04-0.89,0.98-1.08,1.22-2.46c0.23-1.45-0.75-2.03-0.98-3.65
		c-0.27-1.72,0.61-3.19,2.34-6.15c0.97-1.64,1.81-3.04,3.36-4.39c0.8-0.68,1.95-1.66,3.61-2.03c0.29-0.06,0.79-0.14,3.74,0.14
		c3.27,0.31,3.81,0.54,4.52,0c1.11-0.81,0.86-2.09,1.84-2.49c1.32-0.52,2.68,1.47,3.25,0.97c0.64-0.56-1-2.98-0.16-4.7
		c0.55-1.14,2.11-1.8,3.31-1.43c1.95,0.64,1.63,3.67,3.99,4.97c0.09,0.04,1.97,1.04,3.38,0.08c0.55-0.37,1.13-1.12,1.91-5.86
		c0.73-4.37,0.61-5.84,1.54-6.38c1.09-0.64,1.98,1.01,3.84,0.54c1.32-0.33,2.52-1.59,3-3.02c0.57-1.72-0.32-2.42,0.3-4.16
		c0.43-1.2,1.34-2.26,2.41-2.73c1.52-0.68,2.29,0.27,2.97-0.39c0.91-0.93-0.39-2.84,0.23-6.28c0.21-1.16,0.52-2.9,1.66-3.6
		c0.82-0.5,1.36-0.04,2.38-0.77c0.45-0.31,0.8-0.72,1.52-1.57c0.82-0.97,0.91-1.24,1.29-1.33c0.55-0.12,0.98,0.33,1.9,1.1
		c0,0,0.39,0.33,2.84,2.17c1.56,1.16,2.34,1.76,2.97,1.88c1.31,0.27,3.08-0.19,4.11-1.53c1.16-1.53,0.46-3.04,1.82-4.87
		c0.66-0.89,1.18-0.99,1.84-1.53c2.9-2.42,1.23-7.41,4.13-14.1c0.8-1.86,1.61-3.04,2.77-3.52c0.88-0.35,1.34-0.08,2.91-0.33
		c1.79-0.29,2.7-0.43,3.34-1.1c2-2.01-0.46-6.79,1.81-9.38c0.46-0.52,0.48-0.23,1.52-1.16c2.07-1.84,1.9-3.04,3.29-3.75
		c1.02-0.52,1.23,0.08,3.18-0.5c0.97-0.29,1.59-0.48,2.25-1.01c1.54-1.26,2.47-3.77,1.88-5.57c-0.2-0.58-0.54-1.08-0.59-1.14
		c-0.82-1.14-1.86-1.37-1.86-2.11c0-0.04,0.07-0.27,0.11-0.41c0.04-0.14,0.05-0.21,0.07-0.25c0.11-0.43-0.21-0.89-0.11-1.08
		c0.16-0.27,0.93,0.19,1.09-0.06c0.18-0.29-0.73-1.14-0.54-1.62c0.16-0.37,0.91-0.31,0.91-0.43c0-0.12-0.55-0.1-0.61-0.35
		c-0.05-0.27,0.54-0.41,0.66-0.99c0.13-0.5-0.2-0.93,0-1.1c0.09-0.08,0.3-0.12,0.5-0.08c0.52,0.08,0.59,0.64,0.88,0.7
		c0.77,0.17,1.39-3.79,3.56-4.62c1-0.39,1.25,0.54,6.15,3.54c1.52,0.93,2.4,1.39,2.5,2.3c0.18,1.47-0.72,2.94-1.14,3.48"/>
	<path class="st4" d="M128.36,241.48c-0.29,1.68-0.18,2.42,0.89,3.44c0.72,0.66,1.16,1.39,1.68,2.26c0.59,0.99,1.14,1.49,1.13,2.82
		c0,0.5-0.11,0.99-0.13,1.49c-0.04,1.99,0.66,2.88,1.52,4.37c1.5,2.63-1.47,3.33-0.97,5.61c0.23,1.01,0.86,0.72,1.57,0.89
		c0.41,0.1,1.16-0.06,1.16,0.83c0,0.27-0.61,0.87-0.79,1.2c-0.16,0.29-0.57,0.75-0.54,1.14c0.11,1.14,1.47,0.43,2.04,0.66
		c0.98,0.39,0.46,1.2,0.29,2.28c-0.13,0.7-0.16,1.39-0.14,2.11c0,0.17,0.14,0.29,0.29,0.25c1.41-0.43,2.84-0.81,3.08,1.49
		c0.07,0.79-0.23,1.78-0.36,2.57c-0.18,1.16-0.3,2.34-0.11,3.5c0.39,2.34,2.32,3.6,3.92,4.87c1.14,0.91,2.38,1.53,3.59,2.28
		c0.43,0.25,0.89,0.5,1.23,0.89c0.91,1.06,0.3,2.51,0.77,3.58c0.43,0.97,1.09,0.52,1.73,0.02c0.95-0.72,2.4-2.61,2.16,0.04
		c-0.13,1.51-0.2,3.07,0.43,4.47c0.55,1.24,1.98,1.91,2.06,3.42c0.09,1.91-1.68,2.65-1.9,4.25c-0.13,0.91,0.16,1.16,0.93,1.26
		c1.25,0.17,2.22-0.93,3.36-1.12c3.02-0.5,2.86,4.95,2.59,7.06c-0.02,0.17,0.05,0.33,0.21,0.33c3.33,0.02,5.7,0.95,5.31,5.32
		c-0.11,1.22-0.66,3.31,0.43,4.23c0.59,0.48,1.56,0.29,2.2,0.54c1.59,0.64,2.81,2.22,2.27,4.31c-0.18,0.7-1.61,2.88-0.89,3.69
		c0.27,0.31,0.52,0.04,0.8,0.06c0.98,0.04,0.43-2.13,2.29-0.35c0.27,0.25,0.36,1.16,0.41,1.49c0.32,1.82-0.32,4.56,0.39,6.25
		c0.59,1.43,2.2,1.28,3.33,1.64c1.56,0.48,2.36,1.45,3.43,2.65c0.57,0.64,1.07,1.14,1.88,1.3c0.68,0.15,1.23-0.06,1.9-0.19
		c1.88-0.39,2.75-0.27,3.76,1.74c1.36,2.69,0.04,3.46-1.88,4.8c-1.39,0.97-2.81,1.88-4.22,2.78c-4.72,2.92-9.67,5.38-14.82,7.08
		c-6.67,2.2-13.23,2.44-20.12,2.15c-4.72-0.21-9.44-0.52-14.16-0.85c-3.02-0.21-6.2-0.08-9.12-0.93c-0.11-0.04-0.25,0.04-0.27,0.19
		c-0.3,1.95,1.41,3.69,0.68,5.86c-0.73,2.17-2.66,1.26-4.17,1.76s-2.97,1.53-4.2,2.55c-0.95,0.79-4.06,4.49-4.52,2.15
		c-0.05-0.23-0.39-0.25-0.43,0c-0.73,5.59,5.69,9.26,8.99,11.64c1.11,0.79,2.18,1.7,0.14,1.68c-2.04-0.02-3.97-0.35-5.95-0.52
		c-3.97-0.33-7.92-0.27-11.82,0.68c-6.26,1.53-12.23,4.62-18.78,4.08c-2.63-0.21-5.22-0.91-7.81-1.37
		c-3.76-0.66-7.55-1.01-11.35-1.16c-6.76-0.23-13.39,0.6-20.06,1.76c-7.38,1.28-14.7,1.95-22.17,1.47
		c-4.42-0.29-8.83-0.85-13.2-1.68c-0.63-0.12-1.48-0.12-2.06-0.41c-0.95-0.5-0.88-1.41-0.86-2.63c0.02-2.3,0.45-4.62,1.45-6.61
		c0.79-1.55,1.88-2.82,2.5-4.49c0.29-0.75,0.46-1.53,0.66-2.34c0.2-0.81,0.18-1.14,0.8-1.66c1.47-1.24-0.11-0.33,0.93-0.25
		c0.86,0.08,0.89,0.31,1.82-0.08c0.57-0.25,1.27-0.91,1.84-0.97c1.16-0.12,0.39,1.08,0.36,2.01c-0.07,1.8,0.97,1.7,2.09,0.77
		c2.34-1.91,1.63-4.7,1.57-7.56c-0.02-1.33,0.05-1.49,1.32-2.2c0.7-0.37,1.29-0.39,1.97-0.93c0.97-0.77,1.84-2.01,2.16-3.33
		c0.66-2.84-1.56-3.13-3.13-4.25c-1.81-1.28-0.36-2.15-0.13-3.71c0.29-1.95-1.41-3.38-0.86-5.45c0.52-1.93,1.86-3.79,2.88-5.41
		c1.34-2.13,3.2-4.16,5.44-4.91c2.56-0.87,5.27,0.54,7.87,0.29c0.45-0.04,0.79-0.12,1.18-0.39c0.54-0.39,0.61-0.97,1-1.45
		c1.75-2.11,1.82-0.29,3.31,0c0.45,0.08,0.72,0.14,0.95-0.35c0.07-0.17,0.02-0.39,0.04-0.56c0.05-1.99-2.07-3.89,1.23-5.16
		c2.41-0.91,2.91,2.07,4.06,3.62c0.75,1.01,1.79,1.64,2.93,1.78c6.06,0.7,2.34-13.15,6.56-12.61c1.25,0.17,1.98,0.93,3.34,0.31
		c1.11-0.52,2.13-1.62,2.54-2.92c0.23-0.75,0.2-1.12,0.2-1.88c0-2.3,0.54-4.16,2.74-4.87c0.88-0.29,2.34,0.23,2.95-0.81
		c0.39-0.68,0.11-1.7,0.04-2.42c-0.16-1.43-0.16-2.75,0.14-4.18c0.11-0.52,0.23-1.26,0.48-1.68c0.63-1.04,1.38-1.14,2.24-1.55
		c1.05-0.48,1.65-0.87,2.47-1.8c0.91-1.04,1.31-1.74,2.54-0.99c0.29,0.17,0.55,0.48,0.82,0.7c1.82,1.47,4.13,3.96,6.49,3.98
		c1.07,0,2.24-0.39,3.08-1.22c1.34-1.33,0.93-3.17,1.86-4.72c0.86-1.43,2.38-1.91,3.22-3.33c0.75-1.28,0.93-2.88,1.14-4.37
		c0.27-2.03,0.54-4.06,1.11-6.01c0.41-1.39,0.91-2.8,1.63-4.02c0.95-1.62,1.97-1.99,3.54-2.2c1.95-0.25,4.81-0.06,5.53-2.71
		c0.36-1.35,0.07-2.82,0.07-4.18c0-1.37,0.09-2.8,0.97-3.77c0.43-0.48,1.05-0.75,1.52-1.16c1.18-1.04,2.11-3.4,3.58-3.83
		c1.38-0.41,2.68-0.12,4.08-0.77c2.06-0.97,3.83-3.89,2.97-6.52c-0.48-1.47-3.95-4.16-1.43-4.68c0.13-0.02,0.18-0.19,0.16-0.31
		c-0.07-0.62-0.57-1.39,0.23-1.74c0.16-0.08,0.23-0.35,0.05-0.48c-0.43-0.27,0-0.7,0.16-1.08c0.04-0.25,0.02-0.5-0.02-0.75
		l0.77,0.19c0.09,0,0.21,0.27,0.34,0.25c0.91-0.14,1.2-1.47,1.63-2.28c1.27-2.36,2.22-2.75,4.08-1.45c2.41,1.7,8.21,3.89,5.26,8.02
		c-0.18,0.25,0.13,0.62,0.32,0.37c1.05-1.49,1.9-3.62,0.39-5.03c-1.23-1.16-2.93-1.84-4.31-2.78c-0.82-0.56-1.66-1.37-2.56-1.76
		c-1-0.46-1.73-0.12-2.54,0.79c-0.64,0.72-1.04,2.61-1.73,3.09c-0.73,0.5-1.18-0.33-1.9-0.04c-0.09,0.04-0.16,0.12-0.16,0.25
		c-0.04,0.72-0.32,1.35-0.63,1.97c-0.04,0.08-0.04,0.25,0.04,0.31c0.41,0.39,0.34,0,0.3,0.06c-0.02,0.1-0.55,0.23-0.66,0.46
		c-0.32,0.81,0.68,1.24-0.41,1.53c-0.13,0.04-0.18,0.19-0.16,0.31c0.21,1.8-0.29,1.8,0.89,3c1.93,1.95,2.2,4.7,0.16,6.86
		c-1.32,1.41-3.04,1.39-4.7,1.66c-1.16,0.21-1.75,0.54-2.52,1.59c-0.89,1.22-1.7,2.07-2.79,3.07c-0.55,0.5-1.02,0.81-1.38,1.59
		c-0.75,1.74-0.32,3.73-0.36,5.57c-0.09,4.23-3.5,3.52-6.1,3.94c-4.02,0.64-5.15,7.44-5.67,11.2c-0.38,2.71-0.46,5.32-2.61,7
		c-0.55,0.41-1,0.68-1.45,1.28c-0.97,1.3-0.77,2.88-1.47,4.29c-1.95,3.94-5.58,1.3-7.81-0.37c-0.97-0.72-2.16-2.05-3.25-2.57
		c-1.2-0.58-1.54,0.19-2.38,1.16c-0.43,0.52-0.93,1.18-1.48,1.53c-2.86,1.8-0.52-0.08-1.88,0.54c-0.59,0.27-1,0.52-1.39,1.14
		c-1.04,1.59-1.16,4.2-1.02,6.09c0.09,1.06,0.72,2.61-0.63,3.11c-0.39,0.15-1.09-0.14-1.54-0.06c-0.52,0.08-0.98,0.31-1.43,0.6
		c-1.59,1.08-2.04,2.73-2.07,4.7c-0.05,2.36-1.11,4.91-3.56,4.91c-0.95,0-1.84-0.93-2.79-0.77c-0.72,0.12-1.04,0.64-1.29,1.35
		c-0.86,2.36-0.79,5.41-1.34,7.89c-0.59,2.63-1.65,4.64-4.49,3.09c-1.88-1.01-1.88-3.75-3.61-4.78c-1.14-0.68-2.83-0.27-3.67,0.83
		c-0.3,0.37-0.45,0.72-0.55,1.24c-0.18,0.91,0.64,2.4,0.41,3.09c-0.34,1.06-2.59-0.81-3.61,0.08c-0.73,0.66-0.64,1.8-1.63,2.34
		c-0.66,0.35-1.56,0.12-2.25,0.04c-3.68-0.37-6.38-0.99-9.48,1.76c-1.7,1.51-2.88,3.5-4.06,5.55c-0.86,1.51-1.97,3.23-1.72,5.16
		c0.29,2.22,1.25,1.8,0.36,4.89c-0.14,0.5-0.57,0.54-0.55,1.16c0,1.04,0.95,1.43,1.61,1.8c1.75,0.97,3.81,1.39,2.54,4.51
		c-0.91,2.24-2.57,2.3-4.22,3.23c-1.05,0.6-0.97,1.55-0.93,2.78c0.05,1.41,0.41,3.21,0.09,4.6c-0.18,0.72-0.64,1.43-1.13,1.95
		c-0.48,0.68-1.07,0.85-1.79,0.48c0.05-0.5,0.13-0.97,0.21-1.45c0.11-0.77,0.38-1.72-0.46-1.88c-0.73-0.14-2.07,1.26-2.74,1.41
		c-0.88,0.19-0.48,0.14-1.5-0.25c0,0-0.25-0.31-0.38-0.33c-1.39-0.12-1.48,1.95-1.81,3.17c-0.79,3.04-2.68,5.01-3.7,7.89
		c-0.89,2.55-0.97,5.28-0.72,7.99c0,0.1,0.05,0.23,0.16,0.25c9.53,2.09,19.37,3.09,29.06,2.2c7.94-0.72,15.74-2.8,23.71-3.11
		c5.29-0.21,10.62,0.1,15.86,0.95c2.95,0.48,5.86,1.3,8.83,1.55c8.17,0.72,15.56-4.14,23.57-4.83c2.79-0.25,5.6-0.08,8.39,0.19
		c1.75,0.17,4.09,0.89,5.85,0.39c1.59-0.46,0.57-1.45-0.36-2.15c-3.04-2.34-7.08-4.33-8.85-8.28c-0.48-1.06-0.36-2.34-0.98-3.07
		c0.29,0.33,0.07,0.89,0.52,1.16c0.82,0.52,1.79-0.6,2.4-1.12c1.72-1.47,3.29-2.98,5.27-4.04c0.73-0.39,1.5-0.72,2.31-0.72
		c0.77,0,1.34,0.41,2.07,0c0.79-0.46,1.2-1.68,1.32-2.63c0.11-0.87-0.02-1.76-0.21-2.61c-0.09-0.39-0.36-0.91-0.38-1.33
		c0-0.97,0.04-0.46,0.68-0.5c5.42-0.35,11.12,0.68,16.56,1.01c6.78,0.41,13.68,0.97,20.4-0.41c9.92-2.03,19.17-7.29,27.59-13.5
		c0.09-0.06,0.13-0.19,0.11-0.29c-0.52-2.09-1.45-5.36-3.76-5.47c-1.77-0.08-3.09,1.37-4.72-0.41c-0.82-0.91-1.39-1.82-2.45-2.42
		c-1.48-0.83-4.08-0.43-4.51-2.69c-0.29-1.55,0.05-3.38-0.18-5.01c-0.27-1.84-0.66-2.94-2.41-2.3c-1.14,0.41-1.14,0.25-0.88-0.97
		c0.13-0.58,0.48-1.12,0.64-1.72c0.29-1.1,0.3-2.15-0.27-3.13c-0.48-0.81-1.32-1.37-2.09-1.74c-0.43-0.21-1-0.19-1.39-0.39
		c-1.29-0.68-1.34-1.82-1.18-3.33c0.23-2.2,0.32-4.47-1.59-5.65c-0.89-0.56-2.65-0.23-3.31-0.81c-0.91-0.77-0.36-3.48-0.73-4.78
		c-0.59-2.05-1.73-3.02-3.52-2.38c-0.2,0.08-2.18,1.2-2.7,0.87c-0.86-0.58,0.05-1.57,0.38-2.13c0.59-0.99,1.25-2.24,0.98-3.5
		c-0.32-1.49-1.75-2.24-2.29-3.69c-0.39-1.08-0.23-2.42-0.14-3.56c0.04-0.48,0.29-1.41,0-1.86c-0.75-1.28-1.98,0.75-2.61,1.16
		c-1.86,1.22-1.07-1.3-1.75-2.63c-0.45-0.89-1.22-1.33-1.98-1.76c-2.97-1.7-7.35-3.89-7.17-8.37c0.07-1.7,1.48-5.22-0.32-6.38
		c-0.68-0.43-1.84,0.27-2.27,0c-0.23-0.14-0.14,0-0.2-0.6c-0.04-0.33,0.07-0.72,0.13-1.04c0.11-0.64,0.59-1.59,0.45-2.24
		c-0.13-0.52-0.02-0.48-0.46-0.75c-0.63-0.39-2,0.89-2.04-0.6c0-0.43,0.82-1.12,1.04-1.57c0.27-0.62,0.45-1.01-0.02-1.53
		c-0.2-0.21-0.63-0.12-0.86-0.14c-0.14,0-0.72,0.14-0.89,0.06c-1.31-0.62-0.55-1.68-0.21-2.38c0.41-0.87,1.07-1.93,0.91-2.98
		c-0.07-0.41-0.27-0.48-0.46-0.79c-1.09-1.68-1.73-2.22-1.66-4.54c0.05-1.43,0.16-2.28-0.48-3.54c-0.34-0.66-0.73-1.8-1.2-2.36
		c-0.16-0.19-0.79-0.6-0.68-0.5c-0.89-0.93-1.54-1.51-1.25-3.15c0.05-0.33-0.38-0.46-0.43-0.14l0,0L128.36,241.48z"/>
</g>
<path class="st4" d="M133.05,254.49c-0.93-0.87-2.16-0.41-3.09,0.21c-0.88,0.58-1.61,1.43-2,2.53c-0.11,0.31,0.32,0.43,0.43,0.14
	c0.32-0.91,0.95-1.64,1.66-2.13c0.72-0.5,1.9-1.12,2.68-0.37C132.94,255.07,133.26,254.69,133.05,254.49
	C133.05,254.49,133.05,254.49,133.05,254.49z"/>
<path class="st4" d="M139.91,279.82c-0.89-1.66-2.72-1.16-4.11-1.62c-0.91-0.31-1.56-1.18-2.09-2.03c-0.54-0.85-1.11-1.66-1.79-2.38
	c-0.21-0.23-0.54,0.14-0.32,0.37c0.7,0.72,1.25,1.55,1.81,2.4c0.48,0.72,1,1.45,1.73,1.88c0.73,0.43,1.52,0.43,2.31,0.52
	s1.65,0.29,2.07,1.12C139.66,280.38,140.06,280.11,139.91,279.82C139.91,279.82,139.91,279.82,139.91,279.82z"/>
<path class="st4" d="M148.83,289.74c-0.27-0.97-0.7-1.95-1.43-2.55c-0.73-0.6-1.68-0.66-2.57-0.5c-1.23,0.23-2.41,0.64-3.67,0.64
	c-1,0-1.79,0.56-2.29,1.57c-0.14,0.29,0.25,0.56,0.39,0.27c0.23-0.48,0.54-0.89,0.97-1.12c0.46-0.25,0.93-0.19,1.43-0.21
	c0.98-0.06,1.93-0.35,2.9-0.58c0.86-0.19,1.75-0.29,2.52,0.29c0.72,0.52,1.09,1.43,1.34,2.34c0.09,0.31,0.52,0.19,0.43-0.14l0,0
	L148.83,289.74z"/>
<path class="st4" d="M167.59,319.23c-0.23-0.1-0.46-0.19-0.7-0.21c-0.21-0.02-0.46,0.04-0.68,0c-0.36-0.06-0.41-0.6-0.82-0.64
	c-0.36-0.04-0.64,0.29-0.93,0.5c-0.57,0.41-1.18,0.41-1.81,0.19c-0.48-0.17-0.91-0.43-1.29-0.81c-0.25-0.25-0.48-0.5-0.82-0.58
	c-0.79-0.21-1.5,0.39-2.04,0.95c-0.21,0.23,0.11,0.58,0.32,0.37c0.59-0.6,1.39-1.2,2.09-0.52c0.64,0.62,1.32,1.1,2.16,1.24
	c0.45,0.08,0.88,0.04,1.29-0.19c0.25-0.12,0.79-0.72,1.04-0.58c0.13,0.06,0.2,0.29,0.32,0.39c0.13,0.1,0.25,0.17,0.41,0.19
	c0.16,0.02,0.34,0,0.5,0c0.3,0,0.57,0.08,0.84,0.21c0.27,0.12,0.38-0.37,0.13-0.5l0,0L167.59,319.23z"/>
<path class="st4" d="M100.97,273.29c3.16,0.56,6.33,0.46,9.28-1.06c1.54-0.79,3.18-1.57,4.51-2.82c0.77-0.72,1.45-2.2,2.56-1.33
	c0.88,0.68,1.48,1.99,1.84,3.09c0.11,0.31,0.54,0.17,0.43-0.14c-0.41-1.3-1.57-3.96-3.08-3.81c-0.8,0.08-1.29,0.97-1.84,1.55
	c-0.61,0.62-1.31,1.1-2.02,1.55c-1.5,0.93-3.11,1.84-4.77,2.32c-2.22,0.62-4.54,0.54-6.79,0.14c-0.29-0.04-0.41,0.46-0.13,0.5l0,0
	H100.97z"/>
<path class="st4" d="M38.58,330.72c-0.04,0.87-0.07,1.76-0.34,2.59c-0.14,0.41-0.36,0.93-0.7,1.16s-0.75,0.08-1.11,0.27
	c-0.63,0.33-1.07,1.08-1.47,1.7c-0.5,0.79-0.91,1.64-1.25,2.53c-0.11,0.31,0.27,0.56,0.39,0.27c0.34-0.91,0.77-1.78,1.29-2.59
	c0.25-0.39,0.52-0.79,0.82-1.12c0.18-0.19,0.36-0.33,0.59-0.39c0.2-0.04,0.39-0.02,0.57-0.06c0.7-0.14,1.09-0.97,1.31-1.68
	c0.27-0.85,0.3-1.78,0.34-2.67C39.03,330.39,38.6,330.39,38.58,330.72L38.58,330.72L38.58,330.72z"/>
<path class="st4" d="M50.6,329.27c-0.43,0.23-0.91-0.41-1.23-0.62c-0.2-0.12-0.45-0.23-0.68-0.21s-0.45,0.17-0.63,0.35
	c-0.68,0.68-1.16,1.8-0.79,2.8c0.05,0.12,0.21,0.17,0.3,0.08c0.11-0.08,0.13-0.23,0.07-0.35c-0.14-0.41-0.07-0.87,0.11-1.26
	c0.18-0.39,0.45-0.85,0.77-1.06c0.39-0.25,0.79,0.23,1.09,0.46c0.36,0.29,0.79,0.46,1.2,0.23c0.27-0.14,0.04-0.58-0.23-0.46l0,0
	L50.6,329.27z"/>
<path class="st4" d="M66.58,383.81c11.82-3.21,22.6-10.38,30.93-20.59c0.2-0.25-0.13-0.6-0.32-0.37
	c-8.3,10.15-19.01,17.25-30.74,20.44c-0.29,0.08-0.16,0.58,0.13,0.5l0,0V383.81z"/>
<path class="st4" d="M110.28,369.99c-0.27,1.14-0.93,2.07-1.86,2.59c-0.93,0.52-2.24,1.04-3.27,0.58c-0.52-0.23-0.82-0.62-0.97-1.22
	c-0.11-0.41-0.18-0.87-0.43-1.22c-0.29-0.41-0.7-0.37-1.05-0.62c-0.45-0.31-0.18-1.06,0.16-1.35c0.23-0.19,0-0.64-0.23-0.46
	c-0.34,0.27-0.55,0.68-0.61,1.16c-0.07,0.6,0.21,0.99,0.7,1.2c0.34,0.15,0.64,0.23,0.8,0.64c0.13,0.29,0.16,0.62,0.25,0.91
	c0.16,0.6,0.5,1.06,0.98,1.33c1.16,0.66,2.56,0.17,3.68-0.39c1.13-0.56,1.93-1.66,2.25-3c0.07-0.33-0.36-0.46-0.43-0.14l0,0H110.28z
	"/>
<path class="st4" d="M106.06,367.11c0,0-0.05,0.1-0.09,0.14c0,0,0,0.02-0.02,0.04c0,0,0.02-0.04,0,0s-0.04,0.04-0.05,0.06
	c-0.04,0.06-0.09,0.1-0.13,0.14c-0.2,0.21-0.48,0.33-0.77,0.31c-0.59-0.04-1.11-0.68-0.88-1.39c0.14-0.39,0.48-0.66,0.84-0.7
	c0.13,0,0.21-0.1,0.21-0.25c0-0.12-0.11-0.27-0.21-0.25c-0.46,0.06-0.88,0.31-1.13,0.77c-0.23,0.43-0.29,0.97-0.09,1.43
	c0.36,0.89,1.43,1.18,2.13,0.64c0.23-0.17,0.45-0.41,0.57-0.7c0.14-0.29-0.25-0.56-0.39-0.27l0,0V367.11z"/>
<path class="st4" d="M111.41,365.23c0.2-0.14,0.39-0.31,0.59-0.43c0.04,0,0.07-0.04,0.09-0.06c0,0,0.09-0.04,0.04-0.02
	c0.02,0,0.05-0.02,0.07-0.02c0.04,0,0.07,0,0,0c0.05,0,0,0,0,0c-0.04,0-0.07-0.04-0.09-0.08l-0.02-0.08c0,0.02,0.02-0.06,0-0.02
	c0,0-0.04,0.1,0,0.04c-0.07,0.17-0.14,0.31-0.21,0.46c-0.14,0.31-0.34,0.83,0.07,0.99c0.16,0.06,0.38,0.02,0.54-0.04
	c0.23-0.08,0.43-0.23,0.61-0.39c0.34-0.33,0.52-0.85,0.55-1.37c0-0.14-0.11-0.25-0.21-0.25c-0.13,0-0.21,0.12-0.21,0.25
	c0,0.02,0,0.04,0,0.08c0,0,0,0.04,0,0.06c0-0.06,0,0,0,0c-0.02,0.1-0.04,0.19-0.05,0.29c-0.05,0.21-0.18,0.41-0.32,0.56
	c-0.14,0.14-0.32,0.25-0.5,0.31c-0.09,0.02-0.11,0.02-0.2,0.04c-0.05,0,0,0,0,0c-0.02,0-0.05-0.04,0,0c-0.04-0.02,0,0,0,0
	c0.02,0.04,0.02,0.04,0,0c0,0.04,0,0.04,0,0.02c0,0,0,0.06,0,0.02c0-0.02,0-0.06,0,0c0-0.02,0-0.06,0.02-0.08c0,0,0-0.02,0-0.04
	c-0.02,0.06,0,0,0,0c0-0.04,0.04-0.08,0.05-0.12c0.07-0.15,0.14-0.29,0.21-0.43s0.13-0.31,0.09-0.46c-0.04-0.14-0.18-0.25-0.3-0.23
	c-0.14,0-0.29,0.08-0.41,0.17c-0.21,0.12-0.43,0.29-0.64,0.46c-0.11,0.08-0.14,0.23-0.07,0.35c0.05,0.1,0.21,0.17,0.3,0.08l0,0
	L111.41,365.23z"/>
<path class="st4" d="M110.77,358.99c-0.63,0.48-1.09,1.3-0.95,2.2s1.07,1.45,1.81,1.1c0.43-0.21,0.72-0.64,0.86-1.14
	c0.09-0.31-0.34-0.46-0.43-0.14c-0.16,0.62-0.77,1.1-1.31,0.77c-0.48-0.29-0.61-0.91-0.41-1.47c0.13-0.35,0.38-0.66,0.64-0.87
	c0.23-0.19,0-0.62-0.23-0.46l0,0L110.77,358.99z"/>
<path class="st4" d="M106.31,360.78c-0.04-1.04-0.72-1.8-1.59-1.93c-0.27-0.04-0.64,0-0.86-0.25c-0.27-0.33,0-0.64,0.27-0.79
	c0.39-0.23,0.86-0.21,1.22-0.52c0.32-0.29,0.41-0.72,0.45-1.16c0-0.29,0-0.58,0.09-0.85c0.11-0.33,0.39-0.48,0.64-0.64
	c0.57-0.37,1.09-0.46,1.73-0.39c0.64,0.06,1.29,0.1,1.93,0.14c0.29,0.02,0.29-0.5,0-0.52c-0.68-0.06-1.38-0.12-2.06-0.17
	c-0.63-0.04-1.16,0.06-1.73,0.41c-0.45,0.27-0.89,0.56-1,1.18c-0.11,0.56,0.09,1.33-0.43,1.66c-0.43,0.27-0.95,0.23-1.34,0.62
	c-0.34,0.31-0.46,0.83-0.2,1.26c0.36,0.54,0.95,0.43,1.45,0.58c0.55,0.17,0.93,0.72,0.97,1.39c0,0.33,0.46,0.33,0.45,0l0,0
	L106.31,360.78z"/>
<path class="st4" d="M112.84,357.94c0.48,0.87,1.7,1.24,2.56,1.22c0.98-0.04,1.57-0.91,1.61-2.01c0-0.25-0.09-0.7,0.09-0.87
	c0.16-0.14,0.43-0.02,0.63,0c0.39,0.04,0.68-0.17,0.77-0.64c0.09-0.5,0.13-1.1-0.14-1.53c-0.29-0.48-0.82-0.52-1.2-0.83
	c-0.52-0.41-0.88-1.2-0.7-1.93c0.18-0.68,0.82-1.16,1.43-0.97c0.29,0.08,0.39-0.41,0.13-0.5c-0.8-0.25-1.65,0.31-1.93,1.2
	c-0.34,0.99,0.14,2.09,0.86,2.65c0.41,0.33,1.09,0.35,1.16,1.04c0.02,0.23,0.05,0.87-0.16,0.99c-0.14,0.08-0.43-0.04-0.59-0.06
	c-1.09-0.06-0.66,1.39-0.91,2.11c-0.27,0.81-0.97,0.91-1.63,0.75c-0.55-0.12-1.27-0.31-1.59-0.89c-0.16-0.27-0.54,0-0.39,0.27l0,0
	L112.84,357.94z"/>
<path class="st4" d="M123.57,358.68c-0.29-2.28-1.93-1.82-3.43-1.8l0.05,0.52c0.98-0.29,0.82-0.6,1.43-1.2
	c0.86-0.87,2.34-0.64,3.06-1.78c0.59-0.97,0-0.99-0.3-1.82c-0.45-1.26,0.8-2.17,0.32-3.56c-0.36-1.08-1.05-1.26-1.84-1.68
	c-1.52-0.79-2.02-1.53-2.75-3.02c-0.25-0.5-0.45-0.89-0.84-1.24c-1.91-1.78-4.58-1.08-6.37,0.5l0.27,0.41
	c0.86-0.79,1.93-1.28,2.93-1.8c0.68-0.35,1.86-0.66,2.38-1.35c0.21-0.29,0.3-0.48,0.32-0.91c0-0.33-0.16-0.68-0.25-0.97
	c-0.04-0.1-0.34-0.79-0.34-0.91c-0.02-0.62,0.84-1.33,1-1.82c0.25-0.79,0.16-0.89-0.5-1.37c-1.16-0.81-1.97-1.1-2.75-2.53
	c-0.2-0.35-0.3-0.7-0.54-1.01c-0.41-0.54-0.89-1.01,0.23-0.66c1.13,0.35,1.84,1.22,2.88-0.23c0.55-0.77,0.64-1.76,0-2.44
	c-0.43-0.46-1.52-0.41-1.82-0.87c-0.7-1.01-0.04-2.05,0.3-2.86c0.05-0.15,0.2-0.31,0.2-0.48c0.04-1.06-1.05-0.89-1.68-0.87
	c-2.66,0.1,0.43-0.91,0.64-2.22s-1.79-1.51-2.49-1.7c-0.7-0.19-0.77,0.17-0.16-0.15c0.25-0.12,0.52-0.17,0.75-0.37
	c0.32-0.29,0.48-0.56,0.52-1.08c0.07-1.01-0.66-2.88-1.63-3.04c-1.29-0.23-3.59,2.84-4.45,1.24c-0.41-0.75-0.3-2.11-0.7-2.96
	c-0.25-0.56-0.54-1.1-1.05-1.35c-1.77-0.85-5.83,2.51-3.72,4.47c0.36,0.33,0.95,0.37,1.27,0.72c0.52,0.56,0.72-0.56-0.21,1.3
	c-0.77,1.51-0.79,1.01-2.09,1.04c-0.38,0-0.63-0.17-0.93,0.17c-1.09,1.16,0.43,4.23,1.32,4.93c1.23,0.95,3.22,0.91,4.35-0.27
	c0.54-0.56,0.68-1.01,0.61-1.84c-0.02-0.27-0.45-0.83-0.25-1.1c0.2-0.27,2.02,0.52,2.18,0.58c0.27,0.1,0.39-0.39,0.13-0.5
	c-0.52-0.19-2.27-1.1-2.81-0.39c-0.16,0.21,0,0.33-0.07,0.6c-0.11,0.48,0.41,1.53,0.04,2.17c-0.54,0.87-2.18,1.04-2.99,0.79
	c-1-0.29-2.22-1.72-2.2-3.04l0.7-1.55c0.16,0.04,0.32,0.08,0.46,0.1c0.59-0.14,1.14,0,1.75-0.33c0.7-0.41,1.57-1.39,1.11-2.36
	c-0.29-0.6-0.98-0.64-1.41-1.01c-0.18-0.08-0.38-0.19-0.55-0.31c-0.43-1.24-0.25-2.13,0.52-2.65c0.38-0.41,1.13-0.97,1.65-1.06
	c3.54-0.5,1.29,4.1,3.04,4.95c0.77,0.37,1.95-0.7,2.54-1.08c0.36-0.23,1-0.72,1.39-0.72c1.72-0.02,1.7,2.69,0.82,3.4
	c-0.32,0.25-0.8,0.1-1.09,0.46c-0.11,0.12-0.07,0.31,0.05,0.41c0.75,0.66,3.5,0.37,2.66,2.09c-0.25,0.5-1.57,0.89-1.61,1.59
	c-0.09,1.51,2.47-0.02,2.79,0.99c0.41,1.33-2.09,2.3-0.16,3.62c0.43,0.29,1.09,0.27,1.47,0.62c0.32,0.29,0.79,1.64,0.43,2.15
	c-0.25,0.37-1.73,0.21-2.04,0.12c-0.8-0.23-1.23-0.85-2.06-0.14c-0.13,0.1-0.14,0.27-0.05,0.41c0.57,0.77,1.22,1.39,1.75,2.24
	c0.39,0.64,0.72,1.18,1.29,1.64c0.45,0.35,1.63,0.62,1.73,1.2c0.09,0.48-0.68,0.79-0.86,1.3c-0.59,1.59,1.27,2.55-0.32,3.91
	c-1.38,1.18-3.27,1.43-4.65,2.71c-0.2,0.19,0.07,0.58,0.27,0.41c2.25-1.97,5.01-2.03,6.69,0.79c0.5,0.83,0.8,1.64,1.52,2.26
	c1.31,1.14,3.2,0.52,2.66,3.91c-0.07,0.41-0.46,0.54-0.43,1.08c0.05,0.85,1.02,1.41,0.36,2.44c-0.34,0.54-1.97,0.41-2.57,1.06
	c-0.46,0.5-0.46,1.1-1.25,1.33c-0.25,0.06-0.2,0.52,0.05,0.52c1.11,0,2.74-0.64,3,1.41c0.04,0.33,0.46,0.19,0.43-0.14l0,0
	L123.57,358.68z"/>
<path class="st4" d="M102.06,323.21c-7.12,14.44-16.9,26.74-28.81,36.04c-9.71,7.58-20.6,13.54-31.69,17.83
	c-0.27,0.1-0.16,0.6,0.13,0.5c11.34-4.37,22.48-10.48,32.35-18.31c11.73-9.3,21.37-21.52,28.41-35.79
	C102.59,323.18,102.2,322.92,102.06,323.21C102.06,323.21,102.06,323.21,102.06,323.21z"/>
<path class="st4" d="M64.06,373.55c13.63-6.28,25.34-17.23,33.49-31.34c0.16-0.27-0.23-0.54-0.39-0.27
	c-8.08,13.98-19.72,24.87-33.22,31.11C63.67,373.18,63.79,373.68,64.06,373.55C64.06,373.55,64.06,373.55,64.06,373.55z"/>
<path class="st4" d="M67.48,378.34c11.59-6.07,22.05-14.75,30.72-25.52c0.2-0.25-0.13-0.6-0.32-0.37
	c-8.65,10.75-19.08,19.39-30.63,25.43C66.98,378.03,67.21,378.46,67.48,378.34L67.48,378.34L67.48,378.34z"/>
<path class="st4" d="M83.84,383.64c6.78-1.78,12.87-6.09,17.38-12.22c0.18-0.25-0.13-0.62-0.32-0.37
	c-4.45,6.07-10.46,10.31-17.18,12.07c-0.29,0.08-0.16,0.58,0.13,0.5l0,0V383.64z"/>
<path class="st4" d="M104.74,326.89c-0.41-0.77-1.25-1.28-1.95-0.68c-0.14,0.12-0.25,0.27-0.3,0.46c-0.09,0.27-0.05,0.6-0.18,0.85
	c-0.21,0.37-0.7,0.48-0.98,0.75c-0.63,0.58-0.79,1.76-0.05,2.34c0.14,0.1,0.3,0.19,0.48,0.19c0.14,0,0.14,0,0.11,0.17
	c-0.04,0.17-0.07,0.35-0.11,0.52c-0.09,0.43-0.16,0.87,0.18,1.16c0.32,0.27,0.75,0.25,1.09,0.04c0.46-0.29,0.89-1.16,1.48-1.01
	l-0.16-0.25c0,0.5-0.11,1.06-0.02,1.55c0.07,0.37,0.36,0.56,0.66,0.62c0.73,0.17,1.5-0.1,2.04-0.7c0.21-0.23-0.11-0.6-0.32-0.37
	c-0.39,0.43-0.93,0.66-1.48,0.58c-0.11,0-0.3-0.02-0.38-0.1c-0.14-0.12-0.09-0.37-0.07-0.56c0-0.33,0-0.68,0.02-1.01
	c0-0.1-0.07-0.23-0.16-0.25c-0.46-0.12-0.86,0.1-1.2,0.46c-0.3,0.29-0.72,0.91-1.16,0.66c-0.41-0.23,0.11-1.16,0.05-1.57
	c-0.07-0.54-0.61-0.31-0.89-0.6c-0.43-0.46-0.18-1.16,0.23-1.49c0.32-0.25,0.7-0.37,0.95-0.72c0.29-0.39,0.11-1.06,0.52-1.33
	c0.48-0.33,0.98,0.1,1.23,0.58c0.14,0.29,0.54,0.02,0.39-0.27l0,0L104.74,326.89z"/>
<path class="st4" d="M109.62,327.43c0.25-0.29,0.59-0.48,0.95-0.46c0.32,0,0.66,0.25,0.84,0.56c0.18,0.31,0.07,0.56-0.16,0.75
	c-0.18,0.14-0.39,0.25-0.59,0.37c-0.21,0.12-0.41,0.25-0.63,0.37c-0.25,0.17-0.04,0.6,0.23,0.46c0.2-0.12,0.39-0.23,0.57-0.35
	c0.18-0.12,0.38-0.23,0.55-0.35c0.29-0.21,0.52-0.52,0.54-0.91c0.02-0.41-0.23-0.79-0.52-1.04c-0.29-0.25-0.64-0.39-1-0.37
	c-0.43,0.04-0.82,0.27-1.14,0.6c-0.21,0.23,0.11,0.6,0.32,0.37l0,0L109.62,327.43z"/>
<path class="st4" d="M109.09,338.18c0.14,0,0.45-0.08,0.57,0.08c0.07,0.08,0.02,0.27,0.04,0.37c0.02,0.17,0.07,0.31,0.16,0.43
	c0.25,0.31,0.66,0.39,1,0.39c0.77,0.02,1.54-0.62,1.65-1.53c0.13-1.06-0.79-1.66-1.45-2.11c-0.13-0.08-0.27-0.19-0.41-0.27
	c-0.21-0.15-0.25-0.17-0.16-0.43c0.18-0.5,0.11-1.04-0.14-1.49c-0.25-0.46-0.54-0.87-1.02-0.83c-0.52,0.06-0.89,0.58-1.13,1.1
	c-0.13,0.29,0.25,0.56,0.39,0.27c0.14-0.35,0.46-0.91,0.86-0.85c0.3,0.04,0.54,0.56,0.63,0.87c0.07,0.27,0.07,0.52-0.02,0.77
	c-0.05,0.17-0.13,0.33-0.09,0.5c0.07,0.35,0.38,0.5,0.63,0.66c0.5,0.33,1.38,0.79,1.45,1.53c0.09,0.83-0.7,1.35-1.32,1.28
	c-0.16,0-0.34-0.04-0.46-0.12c-0.23-0.17-0.11-0.5-0.21-0.75c-0.18-0.43-0.64-0.43-0.98-0.39c-0.29,0.02-0.29,0.54,0,0.52l0,0
	L109.09,338.18z"/>
<path class="st4" d="M102.79,334.76c-1.31-0.31-3.29-0.81-3.79,1.12c-0.09,0.37-0.11,0.75-0.14,1.14c-0.04,0.39-0.11,0.72-0.41,0.99
	c-0.09,0.08-0.25,0.08-0.36,0.17c-0.43,0.33-0.72,1.28-0.5,1.84c0.25,0.66,0.89,0.64,1.39,0.48c0.21-0.06,0.41-0.17,0.63-0.21
	c0.07,0,0.34-0.1,0.39-0.06c0.14,0.12,0,0.19-0.04,0.27c-0.18,0.31-0.57,0.5-0.77,0.83c-0.29,0.5-0.45,1.14,0.14,1.37
	c0.3,0.12,0.61,0.06,0.89-0.04c0.14-0.04,0.23-0.14,0.39-0.12c0.29,0.02,0.68,0.35,0.93,0.56c0.54,0.41,1.47,1.39,0.7,2.11
	c-0.29,0.27-0.66,0.37-0.97,0.68c-0.79,0.79-1.39,2.59-2.65,2.28c-0.16-0.04-0.32,0.12-0.27,0.31c0.09,0.48,0.32,0.83,0.68,1.08
	c0.25,0.17,0.46-0.27,0.23-0.46c-0.23-0.19-0.41-0.43-0.48-0.77l-0.27,0.31c1.77,0.43,2.31-2.11,3.67-2.8
	c0.54-0.27,0.88-0.7,0.8-1.43c-0.07-0.79-0.66-1.37-1.2-1.78c-0.32-0.25-0.66-0.46-1.04-0.6c-0.43-0.17-0.5,0.21-0.95,0.21
	c-0.95,0,0.18-1.08,0.41-1.3c0.18-0.17,0.39-0.35,0.41-0.62c0.07-0.64-0.61-0.62-0.97-0.56c-0.32,0.06-0.98,0.48-1.27,0.33
	c-0.14-0.06-0.38-0.72-0.38-0.85c0-0.1,0.11-0.35,0.16-0.43c0.16-0.23,0.43-0.29,0.63-0.46c0.63-0.5,0.39-1.51,0.57-2.24
	c0.38-1.64,2.2-1.1,3.27-0.85C102.95,335.32,103.06,334.82,102.79,334.76L102.79,334.76L102.79,334.76z"/>
<path class="st4" d="M105.26,340.85c0.05-0.52,0.04-1.12-0.38-1.45c-0.29-0.23-0.8-0.14-0.93-0.6c-0.04-0.17-0.09-0.43,0-0.58
	c0.07-0.08,0.18-0.17,0.29-0.23c0.11-0.08,0.21-0.14,0.32-0.21c0.39-0.21,0.86-0.29,1.25,0c0.25,0.19,0.46-0.27,0.23-0.46
	c-0.45-0.33-1.02-0.31-1.5-0.08c-0.27,0.12-0.52,0.29-0.73,0.48s-0.34,0.39-0.34,0.7c0,0.25,0.04,0.52,0.14,0.75
	c0.13,0.25,0.32,0.39,0.57,0.48c0.2,0.06,0.43,0.08,0.55,0.29c0.16,0.25,0.11,0.62,0.09,0.91c0,0.14,0.11,0.25,0.21,0.25
	C105.17,341.1,105.26,340.98,105.26,340.85C105.26,340.85,105.26,340.85,105.26,340.85z"/>
<path class="st4" d="M108.69,346.22c0.48-0.17,1.05,0.14,1.22,0.72c0.14,0.54-0.13,1.18-0.57,1.39c-0.48,0.23-1.05,0.17-1.38,0.7
	s-0.16,1.26-0.21,1.86c-0.04,0.33,0.41,0.33,0.45,0c0.05-0.64-0.2-1.59,0.5-1.86c0.29-0.1,0.59-0.12,0.88-0.27
	c0.25-0.12,0.46-0.37,0.63-0.64c0.3-0.58,0.29-1.33-0.07-1.84c-0.36-0.52-0.98-0.75-1.54-0.56c-0.27,0.08-0.16,0.58,0.13,0.5l0,0
	H108.69z"/>
<path class="st4" d="M31.96,238.37c0,0,0.02,0.04,0.04,0.08c0,0,0,0.02,0,0.04c0,0-0.02-0.06,0,0c0,0.04,0.04,0.1,0.04,0.14
	c0,0.04,0.02,0.1,0.04,0.17c0-0.1,0,0,0,0.02s0,0.06,0,0.08c0,0.02,0,0.04,0,0.06c0,0.04,0-0.06,0-0.02c0,0,0,0.02,0,0.04
	s0,0.04,0,0.06c0-0.06,0.02-0.04,0-0.02c0,0,0,0,0,0.02c0,0,0,0,0,0.02c0.02-0.06,0.04-0.04,0,0c0,0,0,0.02-0.02,0.02
	c0,0,0.05-0.04,0.02,0c0,0,0,0-0.02,0c-0.04,0.02,0.05-0.02,0.02,0c-0.02,0-0.04,0-0.07,0c-0.05,0-0.11,0.06-0.13,0.12
	c-0.04,0.06-0.04,0.14-0.02,0.21s0.05,0.12,0.11,0.14c0.05,0.04,0.11,0.04,0.18,0.02c0.14-0.02,0.25-0.12,0.32-0.25
	c0.07-0.12,0.09-0.27,0.11-0.39c0-0.27-0.05-0.56-0.18-0.81c-0.05-0.12-0.21-0.17-0.3-0.08c-0.09,0.08-0.14,0.23-0.07,0.35l0,0
	L31.96,238.37z"/>
<path class="st4" d="M27.98,357.81c1.32-0.87,2.7-2.11,2.16-4.06c-0.36-1.3-1-2.32-0.36-3.69c0.55-1.18,1.7-1.74,2.81-1.78
	c0.68-0.02,1.18,0.04,1.25-0.91c0.09-1.24,0.36-2.3,1.14-3.23c1.52-1.76,3.97-1.59,5.44,0.14c0.2,0.25,0.52-0.12,0.32-0.37
	c-1.23-1.47-3.2-1.99-4.83-1.14c-0.82,0.41-1.5,1.16-1.95,2.07c-0.21,0.46-0.39,0.93-0.48,1.45c-0.11,0.58,0.07,1.35-0.59,1.47
	c-0.46,0.08-0.91,0.02-1.38,0.19c-0.46,0.17-0.93,0.39-1.32,0.75c-0.66,0.6-1.11,1.51-1.18,2.46c-0.07,1.28,0.84,2.3,0.79,3.56
	c-0.05,1.26-1.22,2.07-2.07,2.63c-0.25,0.17-0.02,0.62,0.23,0.46l0,0L27.98,357.81z"/>
<path class="st4" d="M41.8,339.9c0.55-0.17,1.13,0.14,1.34,0.77c0.18,0.5,0.29,0.89,0.79,1.01c0.46,0.1,0.93-0.1,1.39,0
	c0.57,0.12,1.05,0.6,1.23,1.24c0.16,0.54,0.2,1.06,0.55,1.51c0.29,0.35,0.66,0.58,1.07,0.66c0.18,0.04,0.38,0.04,0.57,0
	c0.29-0.04,0.66-0.29,0.91-0.02c0.38,0.41,0.32,1.57,0.16,2.09c-0.11,0.31,0.34,0.46,0.43,0.14c0.27-0.87,0.21-2.94-0.95-2.86
	c-0.29,0.02-0.55,0.19-0.84,0.17c-0.29-0.02-0.59-0.12-0.82-0.33c-0.57-0.5-0.5-1.28-0.82-1.95c-0.25-0.52-0.68-0.91-1.16-1.1
	c-0.54-0.21-1.04,0.04-1.57-0.06c-0.45-0.08-0.43-0.5-0.61-0.87c-0.11-0.23-0.25-0.41-0.41-0.58c-0.39-0.35-0.91-0.48-1.39-0.31
	c-0.29,0.08-0.16,0.58,0.13,0.5l0,0L41.8,339.9z"/>
<path class="st4" d="M54.51,343.19l1.54-4.91c0.55-1.76,1.07-3.11,2.79-3.46c1.32-0.27,4.06,0,4.04-2.28c0-1.04-0.13-2.11,0.97-2.51
	c0.7-0.25,1.45-0.33,2.18-0.39c1.41-0.12,2.83-0.17,4.24-0.35c2.75-0.35,5.45-1.01,8.1-1.95c0.27-0.1,0.16-0.6-0.13-0.5
	c-3.2,1.12-6.47,1.84-9.82,2.11c-1.34,0.1-2.68,0.1-4.01,0.39c-0.73,0.17-1.68,0.41-2,1.3c-0.18,0.5-0.04,0.97-0.04,1.49
	c-0.04,1.72-1.25,1.84-2.29,1.99c-0.93,0.12-1.95,0.17-2.77,0.75c-0.82,0.58-1.14,1.53-1.47,2.51c-0.61,1.88-1.2,3.79-1.79,5.7
	c-0.11,0.31,0.34,0.46,0.43,0.15l0,0L54.51,343.19z"/>
<path class="st4" d="M84.53,316.81c0.75-1.3,2.4-1.57,2.86-3.19c0.27-0.91-0.07-1.84,0.13-2.73c0.21-1.04,1.34-0.64,1.98-0.64
	c0.52,0,1.04-0.12,1.36-0.62c0.38-0.56,0.34-1.33,0.38-1.99c0.04-1.1,0.39-1.93,1.36-2.26s2,0.1,2.93,0.48
	c0.27,0.1,0.39-0.39,0.13-0.5c-1.41-0.58-3.4-1.18-4.45,0.52c-0.41,0.66-0.38,1.49-0.41,2.28c-0.02,0.54-0.07,1.12-0.52,1.41
	c-0.36,0.23-0.8,0.14-1.18,0.12c-0.57-0.04-1.23-0.12-1.68,0.39c-0.54,0.64-0.3,1.57-0.3,2.36c0,1.22-0.52,1.91-1.36,2.55
	c-0.59,0.43-1.18,0.85-1.57,1.55c-0.16,0.27,0.23,0.54,0.39,0.27l0,0L84.53,316.81z"/>
<path class="st4" d="M43.91,368.65c1.09-0.87,0.95-2.46,1.31-3.79c0.43-1.64,1.93-2.8,3.4-2.71c0.64,0.04,1.29,0.54,1.91,0.23
	c0.52-0.25,0.8-0.89,0.97-1.47c0.21-0.81,0.16-1.99,0.89-2.46c0.73-0.48,2.07-0.17,2.9-0.08c0.29,0.04,0.29-0.48,0-0.52
	c-1.36-0.17-3.31-0.58-3.9,1.28c-0.25,0.81-0.18,1.8-0.72,2.46c-0.54,0.66-1.65,0-2.38,0.02c-1.25,0.06-2.45,0.87-3.13,2.07
	c-0.36,0.62-0.48,1.35-0.61,2.07c-0.13,0.87-0.21,1.88-0.91,2.42c-0.23,0.19,0,0.64,0.23,0.46l0,0L43.91,368.65z"/>
<path class="st4" d="M65.15,338.59c0.55-0.46,1.14-0.89,1.73-1.26c0.8-0.52,1.86-1.18,2.81-1.06c0.64,0.08,0.91,0.83,1.11,1.47
	c0.23,0.77,0.25,1.57,0.43,2.36c0.16,0.72,0.55,1.14,1.18,1.28c0.72,0.17,1.43,0.33,2.16,0.41c0.29,0.02,0.29-0.5,0-0.52
	c-0.63-0.06-1.25-0.23-1.86-0.35c-0.32-0.06-0.63-0.1-0.84-0.41c-0.21-0.31-0.25-0.77-0.3-1.14c-0.13-1.06-0.32-2.55-1.11-3.27
	c-0.5-0.48-1.23-0.37-1.82-0.19c-0.79,0.25-1.54,0.68-2.24,1.14c-0.52,0.33-1.02,0.7-1.48,1.1c-0.23,0.19,0,0.64,0.23,0.46l0,0
	V338.59z"/>
<path class="st4" d="M93.58,299.88c-0.09-0.99-0.18-2.55,0.88-2.9c0.63-0.21,1.32,0.1,1.88-0.39c0.45-0.41,0.52-1.08,0.43-1.7
	c-0.09-0.77-0.59-1.8-0.16-2.51c0.41-0.66,1.34-0.33,1.91-0.33c0.5,0,0.98-0.15,1.27-0.66c0.32-0.58,0.23-1.3,0.25-1.97
	c0.02-0.54,0.16-0.93,0.59-1.2c0.46-0.27,1.04-0.29,1.54-0.27c0.2,0,0.43,0,0.63,0.04c0.46,0.12,0.57,0.41,0.66,0.85
	c0.11,0.48,0.13,0.99,0.05,1.47c-0.14,0.97-0.59,1.82-1.29,2.38c-0.23,0.19,0,0.64,0.23,0.46c1.22-0.97,1.84-2.78,1.45-4.45
	c-0.09-0.37-0.21-0.83-0.5-1.06c-0.3-0.25-0.79-0.21-1.13-0.23c-0.77-0.04-1.81,0-2.34,0.77c-0.54,0.77-0.2,1.68-0.38,2.51
	c-0.23,1.18-1.41,0.72-2.15,0.77c-0.66,0.02-1.25,0.39-1.39,1.2c-0.16,0.97,0.41,1.86,0.3,2.84c-0.14,1.33-1.75,0.62-2.49,1.22
	c-0.86,0.7-0.82,2.05-0.73,3.13c0.04,0.33,0.48,0.33,0.45,0l0,0L93.58,299.88z"/>
<path class="st4" d="M108.83,304.92c-0.41-0.02-0.77,0.12-1.16,0.25c-0.16,0.04-0.3,0.06-0.46,0.04c-0.2-0.02-0.39-0.04-0.59,0.08
	c-0.36,0.23-0.45,0.81-0.41,1.24c0.04,0.48,0.25,0.91,0.52,1.26c0.54,0.7,1.41,1.18,2.24,1.14c0.41-0.02,0.8-0.21,1.07-0.58
	c0.29-0.41,0.32-0.91,0.36-1.41c0.04-0.54,0-1.12-0.36-1.53c-0.32-0.37-0.77-0.43-1.22-0.48c-0.29,0-0.29,0.5,0,0.52
	c0.29,0.02,0.63,0.04,0.86,0.27c0.25,0.25,0.29,0.66,0.27,1.04s-0.04,0.81-0.2,1.14c-0.16,0.33-0.45,0.48-0.75,0.52
	c-0.66,0.06-1.34-0.27-1.82-0.79c-0.23-0.25-0.43-0.58-0.52-0.93c-0.05-0.27-0.07-0.85,0.21-0.95c0.14-0.04,0.32,0.02,0.46,0.02
	s0.3-0.04,0.46-0.08c0.34-0.1,0.64-0.23,1-0.21c0.29,0,0.29-0.5,0-0.52L108.83,304.92z"/>
<path class="st4" d="M115.52,307.88c-0.72-0.02-1.23,0.64-1.66,1.22c-0.43,0.58-0.91,1.37-0.48,2.09c0.16,0.29,0.43,0.5,0.68,0.66
	c0.2,0.12,0.41,0.19,0.61,0.31c0.5,0.33,0.75,1.14,0.95,1.74c0.07,0.21,0.3,0.25,0.41,0.06c0.48-0.87,0.86-1.91,1.02-2.92
	c0.11-0.66,0.11-1.37-0.16-1.99c-0.27-0.62-0.75-1.1-1.34-1.18c-0.29-0.04-0.29,0.48,0,0.52c0.48,0.06,0.89,0.62,1.04,1.14
	c0.16,0.58,0.09,1.2-0.04,1.76c-0.18,0.85-0.5,1.66-0.89,2.4l0.41,0.06c-0.2-0.62-0.43-1.3-0.86-1.78
	c-0.29-0.31-0.64-0.39-0.98-0.62c-0.23-0.17-0.52-0.39-0.55-0.75c-0.04-0.35,0.21-0.7,0.39-0.97c0.36-0.52,0.86-1.28,1.48-1.24
	c0.29,0,0.29-0.5,0-0.52L115.52,307.88z"/>
<path class="st4" d="M126.25,307.61c-0.7-0.41-0.8-1.59-0.72-2.4c0.09-0.85,0.46-1.78,1.22-2.09c0.21-0.08,0.43-0.08,0.59,0.1
	c0.13,0.12,0.25,0.37,0.18,0.58c-0.09,0.23-0.32,0.33-0.38,0.6c-0.05,0.29,0.14,0.52,0.36,0.6c0.5,0.19,1.11-0.23,1.57,0.15
	c0.36,0.29-0.2,0.89-0.38,1.14c-0.32,0.39-0.7,0.77-1.09,1.04c-0.39,0.27-0.91,0.52-1.36,0.27c-0.25-0.14-0.48,0.31-0.23,0.46
	c1,0.54,2.07-0.35,2.77-1.12c0.32-0.35,0.72-0.81,0.84-1.33c0.16-0.7-0.46-1.1-0.98-1.12c-0.16,0-0.34,0.02-0.5,0.04
	c-0.05,0-0.54,0.06-0.54-0.02c0-0.06,0.23-0.29,0.27-0.35c0.07-0.12,0.11-0.27,0.13-0.41c0.04-0.6-0.39-1.14-0.89-1.18
	c-0.5-0.04-0.98,0.33-1.31,0.72c-0.32,0.39-0.52,0.91-0.63,1.43c-0.23,1.1-0.13,2.75,0.86,3.33c0.25,0.15,0.48-0.29,0.23-0.46
	L126.25,307.61z"/>
<path class="st4" d="M123.07,321.88c-0.32-0.62-0.38-1.49,0.07-2.07c0.34-0.43,0.84-0.58,1.32-0.56c0.23,0,0.43,0.06,0.57,0.29
	c0.16,0.25,0.23,0.58,0.23,0.89c0,0.27-0.05,0.58-0.27,0.75c-0.21,0.17-0.48,0.21-0.7,0.37c-0.18,0.14-0.34,0.31-0.46,0.52
	c-0.07,0.1-0.16,0.31-0.29,0.31c-0.2,0-0.39-0.33-0.5-0.52c-0.16-0.29-0.54,0-0.39,0.27s0.36,0.56,0.63,0.7
	c0.18,0.08,0.38,0.1,0.54,0c0.16-0.1,0.25-0.31,0.38-0.48c0.14-0.19,0.3-0.35,0.52-0.48c0.14-0.08,0.29-0.12,0.41-0.19
	c0.3-0.17,0.48-0.54,0.54-0.91c0.13-0.79-0.2-1.88-0.98-2.01c-0.59-0.1-1.22,0.02-1.7,0.48c-0.75,0.7-0.82,1.99-0.32,2.9
	c0.14,0.29,0.54,0.02,0.39-0.27L123.07,321.88z"/>
<path class="st4" d="M135.57,311.09c0.48-1.2,0.91-2.44,1.13-3.73c0.09-0.58,0.09-1.2,0.52-1.62c0.36-0.35,0.89-0.48,1.36-0.43
	c0.46,0.04,0.89,0.39,1.38,0.46c0.66,0.1,1.04-0.48,1.57-0.81c0.54-0.33,1.77-0.91,2.31-0.31c0.18,0.21,0.29,0.46,0.48,0.66
	c0.21,0.21,0.45,0.33,0.7,0.43c0.27,0.1,0.39-0.39,0.13-0.5c-0.41-0.17-0.66-0.48-0.91-0.85c-0.16-0.25-0.32-0.41-0.59-0.46
	c-0.64-0.12-1.39,0.1-1.98,0.39c-0.29,0.14-0.55,0.33-0.8,0.54c-0.38,0.31-0.63,0.48-1.09,0.31c-0.46-0.17-0.88-0.41-1.38-0.39
	c-1.05,0.04-1.86,0.68-2.02,1.93c-0.2,1.45-0.61,2.8-1.14,4.12c-0.13,0.29,0.27,0.56,0.39,0.27l0,0L135.57,311.09z"/>
<path class="st4" d="M135.42,319.15c0.16-0.66,0.34-1.35,0.64-1.93c0.13-0.23,0.29-0.54,0.54-0.62c0.36-0.12,0.68,0.37,0.95,0.54
	c0.45,0.29,0.95,0.29,1.41,0.06c0.46-0.23,0.86-0.64,1-1.2c0.13-0.48-0.04-0.95-0.23-1.37c-0.29-0.64-0.63-1.24-1-1.82
	c-0.2-0.31-0.43-0.58-0.38-0.99c0.11-0.77,0.84-1.3,1.48-1.22c0.7,0.08,1.2,0.72,1.38,1.47c0.07,0.31,0.5,0.19,0.43-0.14
	c-0.29-1.22-1.38-2.22-2.5-1.76c-0.86,0.33-1.61,1.53-1.04,2.53c0.32,0.58,0.7,1.1,1,1.7s0.7,1.26,0.2,1.91
	c-0.5,0.64-1.2,0.68-1.79,0.19c-0.3-0.27-0.63-0.54-1.04-0.41c-0.95,0.29-1.29,2.01-1.5,2.92c-0.07,0.33,0.36,0.46,0.43,0.14l0,0
	L135.42,319.15z"/>
<path class="st4" d="M143.6,309c-0.02-0.56,0.29-1.24,0.86-1.04c0.68,0.25,0.11,1.06-0.05,1.49c-0.21,0.58-0.13,1.24,0.23,1.74
	c0.16,0.21,0.36,0.39,0.59,0.48c0.39,0.14,0.8,0,1.18,0.17c0.64,0.25,0.07,0.93-0.05,1.37c-0.09,0.31-0.09,0.66-0.02,0.99
	c0.3,1.51,1.63,2.22,2.84,2.32c0.82,0.06,1.59,0.14,2.31,0.64c0.66,0.46,1.16,1.16,1.54,1.93c0.14,0.29,0.54,0.02,0.39-0.27
	c-0.63-1.22-1.52-2.22-2.72-2.61c-1.32-0.41-2.9,0.04-3.72-1.59c-0.18-0.33-0.29-0.75-0.21-1.14c0.07-0.39,0.36-0.66,0.43-1.04
	c0.13-0.6-0.32-1.04-0.79-1.14c-0.34-0.08-0.7,0-1.02-0.12c-0.38-0.14-0.64-0.62-0.64-1.08c0-0.7,0.68-1.2,0.48-1.95
	c-0.14-0.58-0.77-0.87-1.25-0.7c-0.57,0.21-0.84,0.89-0.8,1.53c0,0.33,0.46,0.33,0.45,0l0,0L143.6,309z"/>
<path class="st4" d="M137.03,348.1c0.18-0.83,0.61-1.55,1.25-1.97c0.52-0.33,1.13-0.35,1.66-0.64c1.16-0.6,0.68-1.82,0.5-2.92
	c-0.32-1.88,2.2-1.55,3.16-2.03c0.63-0.31,1.23-0.91,1.47-1.68c0.43-1.45-0.72-2.63-1.84-2.92c-0.29-0.06-0.39,0.43-0.13,0.5
	c0.77,0.19,1.65,0.83,1.61,1.86c-0.02,0.66-0.48,1.22-0.93,1.55c-1.07,0.81-2.65,0.23-3.54,1.45c-0.38,0.52-0.29,1.18-0.14,1.78
	c0.09,0.35,0.21,0.72,0.21,1.1c-0.02,0.6-0.43,0.85-0.88,0.99c-0.64,0.21-1.25,0.35-1.79,0.85c-0.54,0.5-0.89,1.18-1.05,1.95
	c-0.07,0.33,0.36,0.46,0.43,0.14l0,0V348.1z"/>
<path class="st4" d="M126.57,349.14c-0.07-0.72-0.18-1.55,0.2-2.2c0.3-0.52,0.84-0.77,1.36-0.93c0.54-0.17,1.18-0.39,1.73-0.25
	c0.5,0.12,0.79,0.64,0.77,1.2c-0.04,0.79-0.52,1.51-1,2.03c-0.21,0.23,0.11,0.6,0.32,0.37c0.52-0.58,0.98-1.3,1.09-2.13
	c0.09-0.68-0.11-1.39-0.63-1.76c-0.59-0.43-1.39-0.23-2.04-0.06c-0.64,0.17-1.31,0.39-1.77,0.95c-0.63,0.75-0.59,1.82-0.48,2.8
	c0.04,0.33,0.48,0.33,0.45,0l0,0L126.57,349.14z"/>
<path class="st4" d="M136.87,354.15c-0.14-1.82,0.88-3.56,2.57-3.38c0.73,0.08,1.38,0.43,1.48,1.33c0.07,0.64,0.13,1.18,0.66,1.53
	c0.5,0.33,1.14,0.29,1.68,0.21c0.34-0.06,0.59-0.12,0.93,0c1.11,0.43,1.97,1.82,2.63,2.86c0.18,0.27,0.55,0,0.39-0.27
	c-0.73-1.14-1.63-2.55-2.83-3.07c-0.3-0.12-0.59-0.14-0.91-0.1c-0.45,0.06-0.89,0.17-1.34,0.04c-0.63-0.17-0.7-0.64-0.77-1.3
	c-0.16-1.55-1.7-2.01-2.86-1.7c-1.48,0.41-2.22,2.17-2.09,3.83c0.02,0.33,0.46,0.33,0.45,0l0,0L136.87,354.15z"/>
<path class="st4" d="M155.74,352.76c0.09-0.39,0.05-0.81,0-1.2c-0.05-0.39-0.16-0.89,0.05-1.24c0.18-0.29,0.5-0.39,0.79-0.48
	c0.3-0.1,0.63-0.21,0.89-0.41c0.57-0.48,0.66-1.37,0.61-2.11c0-0.31-0.04-0.48,0.27-0.56c0.25-0.06,0.5-0.1,0.75-0.12
	c0.5-0.04,0.98,0,1.47,0.08c0.29,0.06,0.41-0.43,0.13-0.5c-0.52-0.1-1.05-0.15-1.59-0.08c-0.38,0.04-0.97,0.04-1.27,0.35
	c-0.3,0.31-0.18,0.83-0.18,1.24c0,0.46-0.07,0.99-0.39,1.28c-0.54,0.5-1.36,0.35-1.81,1.04c-0.52,0.81,0.07,1.76-0.14,2.63
	c-0.07,0.33,0.36,0.46,0.43,0.14l0,0L155.74,352.76z"/>
<path class="st4" d="M171.1,349.07c-0.16-1.26,0.14-2.55,0-3.81c-0.13-1.08-0.61-1.91-1.32-2.57c-0.68-0.62-1.5-1.3-2.34-1.55
	c-1.05-0.31-1.95,0.31-2.99,0.35c-2.15,0.06-2.45-3.33-3.72-4.72s-3-0.62-3.79,1.01c-0.14,0.29,0.25,0.56,0.39,0.27
	c0.52-1.06,1.56-1.99,2.63-1.33c0.75,0.48,1.18,1.45,1.56,2.3c0.57,1.33,1.29,2.9,2.74,2.98c0.86,0.04,1.65-0.46,2.49-0.46
	c0.97,0,1.88,0.75,2.63,1.41c0.93,0.81,1.36,1.82,1.34,3.19c0,1.04-0.16,2.05-0.02,3.09c0.04,0.33,0.46,0.19,0.43-0.14l0,0
	L171.1,349.07z"/>
<path class="st4" d="M118.24,292.49c1.52-1.45,0.8-3.81,0.91-5.76c0.05-0.93,0.29-1.91,1.05-2.36c0.59-0.37,1.32-0.31,1.97-0.31
	c0.8,0,1.68,0,2.36-0.56c0.64-0.52,0.79-1.33,0.8-2.2c0.05-1.53,0.04-3.09,0.02-4.62c-0.02-1.53-0.14-2.98,0-4.45
	c0.09-0.85,0.3-1.78,0.95-2.28c0.64-0.5,1.47-0.56,1.98,0.14c0.2,0.25,0.5-0.12,0.32-0.37c-1.16-1.57-3.08-0.21-3.52,1.41
	c-0.39,1.43-0.21,3.04-0.2,4.49c0,1.76,0.02,3.54,0,5.3c0,1.16-0.14,2.09-1.23,2.46c-0.59,0.21-1.22,0.14-1.82,0.14
	c-0.95,0-1.93,0.12-2.57,1.06c-1.5,2.2,0.59,5.67-1.38,7.54c-0.21,0.21,0.09,0.58,0.32,0.37l0,0L118.24,292.49z"/>
<path class="st4" d="M120.99,266.91c1.98-2.24,2.83-5.61,2.2-8.72c-0.07-0.33-0.5-0.19-0.43,0.14c0.59,2.94-0.23,6.13-2.09,8.22
	c-0.21,0.23,0.11,0.6,0.32,0.37l0,0L120.99,266.91z"/>
<g>
	<path class="st1" d="M48.33,298.99c0.18,0.27,0.45,0.66,0.8,1.1c0.34,0.41,1.68,1.93,4.42,3.04c0.43,0.19,0.68,0.27,2.43,0.77
		c3.56,1.04,5.33,1.55,6.54,1.82c1.2,0.27,2.83,0.62,4.77,0.93c0.45,0.04,0.93,0.08,1.47,0.06c0.3,0,0.59,0,0.86-0.04
		c0.05-0.5,0.07-1.06,0.07-1.68c0-0.7-0.05-1.37-0.11-1.93c-2.15,0.1-5.02-0.04-8.31-0.95c-2.49-0.7-4.56-1.68-6.15-2.59
		c0-1.01,0.02-2.03,0.04-3.04c-0.64-0.02-3.7-0.12-5.51,0.41c-0.45,0.12-1,0.35-1.25,0.91C48.16,298.33,48.31,298.89,48.33,298.99
		c0.2,0.97,0.07,7.87-0.72,25.95c0.11,0.39,1.11,4.06,3.61,4.66c0.27,0.06,1.07,0.25,1.84-0.12c3.33-1.66,1.88-11.93,3.95-12.45
		c0.89-0.23,1.47,1.64,3.13,1.62c1.45,0,2.52-1.41,2.86-1.84c2.41-3.13,0.79-6.9,2.97-9.01c0.45-0.43,1.29-1.01,2.79-1.06"/>
	<path class="st4" d="M48.18,299.18c2.29,3.42,5.78,4.41,9.23,5.41c3.93,1.14,8.15,2.63,12.23,2.36c0.13,0,0.21-0.1,0.21-0.25
		c0.09-1.22,0.09-2.4-0.04-3.6c0-0.14-0.09-0.27-0.21-0.25c-2.77,0.1-5.56-0.19-8.26-0.95c-1.31-0.37-2.59-0.83-3.84-1.41
		c-0.64-0.29-1.68-0.56-2.02-1.24c-0.32-0.64-0.11-1.99-0.09-2.73c0-0.14-0.11-0.25-0.21-0.25c-1.23-0.04-2.45-0.04-3.68,0.08
		c-1.02,0.1-2.72,0.15-3.27,1.35c-0.34,0.72-0.04,2.17-0.02,3.02c0.05,5.14-0.23,10.29-0.43,15.43c-0.09,2.3-0.18,4.6-0.29,6.9
		c-0.05,1.45-0.11,2.24,0.45,3.5c0.93,2.11,2.99,4.31,5.2,3.21c1.66-0.81,2.11-3.31,2.38-5.14c0.18-1.24,0.29-2.51,0.43-3.77
		c0.09-0.83,0.16-2.75,0.79-3.33c0.68-0.6,1.25,0.35,1.77,0.77c0.5,0.39,1.04,0.62,1.63,0.62c1.2,0,2.25-0.91,3.02-1.91
		c1.11-1.47,1.43-3.19,1.65-5.05c0.14-1.28,0.25-2.65,1.05-3.65c0.77-0.93,1.84-1.2,2.91-1.28c0.29-0.02,0.29-0.54,0-0.52
		c-2.5,0.19-3.93,1.66-4.31,4.51c-0.25,1.86-0.34,3.65-1.34,5.22c-1.25,1.93-3,2.75-4.77,1.24c-1-0.85-1.81-0.97-2.34,0.52
		c-0.73,2.09-0.63,4.62-0.98,6.81c-0.2,1.16-0.43,2.42-1.02,3.4c-1.04,1.74-3.09,1.49-4.35,0.19c-0.73-0.75-1.48-2.03-1.73-3.17
		c-0.14-0.7-0.04-1.47,0-2.2c0.05-1.39,0.13-2.8,0.18-4.18c0.21-5.51,0.46-11.04,0.52-16.55c0-1.04-0.09-2.11-0.05-3.15
		c0.04-1.35,0.45-1.8,1.47-2.05c0.84-0.21,1.73-0.27,2.61-0.31c0.54-0.02,1.43-0.21,1.97,0c0.61,0.21,0.09-0.25,0.32,0.37
		c0.2,0.56-0.02,1.82-0.02,2.44c0,0.08,0.04,0.19,0.11,0.23c3.42,1.91,7.08,3.13,10.85,3.5c0.93,0.08,1.86,0.04,2.79,0.12
		c0.64,0.04,0.64-0.12,0.79,0.62c0.09,0.46,0.09,1.16,0.02,1.62c-0.09,0.79-0.04,0.77-0.72,0.87c-0.57,0.08-1.39-0.06-1.93-0.14
		c-1-0.14-1.98-0.35-2.99-0.56c-2.86-0.6-5.69-1.49-8.49-2.32c-2.66-0.79-5.15-2.09-6.87-4.64c-0.18-0.27-0.48,0.1-0.32,0.37l0,0
		L48.18,299.18z"/>
</g>
<path class="st4" d="M69.43,306.49c-4.22,0.02-8.14-1.12-12.18-2.4c-2.04-0.66-10.34-3.11-8.08-6.81c0.16-0.27-0.21-0.54-0.39-0.27
	c-2.59,4.25,5.95,6.77,8.12,7.5c4.13,1.37,8.21,2.53,12.53,2.49c0.29,0,0.29-0.52,0-0.52l0,0L69.43,306.49z"/>
<path class="st4" d="M48.22,308.15c4.99,2.42,10.32,3.83,15.72,4.16c0.29,0,0.29-0.5,0-0.52c-5.36-0.33-10.64-1.74-15.61-4.14
	c-0.27-0.12-0.38,0.37-0.13,0.5l0,0H48.22z"/>
<path class="st4" d="M53.58,309.99c0.07-2.28,0.14-4.56,0.2-6.86c0-0.33-0.43-0.33-0.45,0c-0.07,2.28-0.14,4.56-0.2,6.86
	C53.14,310.32,53.56,310.32,53.58,309.99L53.58,309.99z"/>
<path class="st4" d="M62.11,311.61c0.04-1.95,0.05-3.91,0.09-5.86c0-0.33-0.45-0.33-0.45,0c-0.04,1.95-0.05,3.91-0.09,5.86
	C61.66,311.94,62.11,311.94,62.11,311.61C62.11,311.61,62.11,311.61,62.11,311.61z"/>
<path class="st4" d="M49.7,308.89l-0.38,6.73c-0.02,0.33,0.43,0.33,0.45,0l0.38-6.73C50.17,308.56,49.72,308.56,49.7,308.89
	L49.7,308.89z"/>
<path class="st4" d="M56.69,311.03c-0.13,2.13-0.25,4.29-0.39,6.42c-0.02,0.33,0.43,0.33,0.45,0c0.13-2.13,0.25-4.29,0.39-6.42
	C57.16,310.7,56.71,310.7,56.69,311.03L56.69,311.03z"/>
<path class="st4" d="M47.93,314.96c2.63,1.68,5.54,2.69,8.53,2.98c0.29,0.02,0.29-0.5,0-0.52c-2.91-0.29-5.74-1.28-8.3-2.92
	C47.91,314.34,47.68,314.8,47.93,314.96C47.93,314.96,47.93,314.96,47.93,314.96z"/>
<path class="st4" d="M52.22,316.93c-0.05,2.46-0.11,4.93-0.18,7.39c0,0.33,0.45,0.33,0.45,0c0.05-2.46,0.11-4.93,0.18-7.39
	C52.67,316.6,52.22,316.6,52.22,316.93L52.22,316.93z"/>
<path class="st4" d="M55.21,324.45c-2.61-0.1-5.17-0.81-7.53-2.09c-0.25-0.14-0.48,0.31-0.23,0.46c2.43,1.33,5.06,2.07,7.74,2.17
	c0.29,0,0.29-0.5,0-0.52l0,0L55.21,324.45z"/>
<path class="st4" d="M113.79,61.87c24.43-2.36,48.83-4.74,73.26-7.1c0.57-0.06,0.57-1.1,0-1.04c-24.43,2.36-48.83,4.74-73.26,7.1
	C113.22,60.9,113.22,61.94,113.79,61.87C113.79,61.87,113.79,61.87,113.79,61.87z"/>
<path class="st4" d="M168.36,63.94c-17.33,0.39-34.65,0.79-51.96,1.18c-0.57,0-0.57,1.06,0,1.04c17.33-0.39,34.65-0.79,51.96-1.18
	C168.93,64.98,168.93,63.92,168.36,63.94L168.36,63.94z"/>
<path class="st4" d="M163.78,76.77c-15.79-2.2-31.58-4.39-47.37-6.59c-0.57-0.08-0.57,0.95,0,1.04c15.79,2.2,31.58,4.39,47.37,6.59
	C164.36,77.88,164.36,76.85,163.78,76.77L163.78,76.77z"/>
<path class="st4" d="M130.31,371.46c5.97,2.57,12.46,3.13,18.69,1.66c0.29-0.06,0.16-0.56-0.13-0.5
	c-6.15,1.45-12.55,0.87-18.45-1.66c-0.27-0.12-0.39,0.39-0.13,0.5l0,0H130.31z"/>
<path class="st4" d="M146.12,366.95c12.11-0.95,24.62-3.21,34.65-11.64c0.23-0.19,0-0.64-0.23-0.46
	c-9.98,8.39-22.4,10.62-34.44,11.58c-0.29,0.02-0.29,0.54,0,0.52l0,0H146.12z"/>
<path class="st4" d="M185.79,361.87c-1.38,1.33-2.95,2.38-4.68,2.9c-1.86,0.56-3.59,0.23-5.47,0.14c-3.22-0.14-6.33,0.99-9.17,2.65
	c-0.25,0.14-0.04,0.6,0.23,0.46c3.25-1.88,6.6-2.84,10.23-2.46c3.63,0.37,6.51-0.72,9.17-3.31c0.21-0.21-0.09-0.58-0.32-0.37l0,0
	H185.79z"/>
</svg>
